{"glyphs":{"0":{"ha":454,"x_min":27,"x_max":427,"o":"m 138 10 q 64 94 92 33 q 27 300 27 162 q 95 667 28 491 q 110 707 102 687 q 121 739 117 728 q 142 775 130 764 l 155 787 l 200 786 q 233 784 222 785 q 252 781 243 783 q 272 771 260 778 q 422 534 397 710 q 427 469 427 503 q 406 305 427 393 q 320 90 378 179 q 280 44 303 66 q 238 12 257 22 q 215 4 226 6 q 188 1 204 1 q 175 0 180 0 q 161 1 166 0 q 138 10 152 3 m 227 31 q 352 196 300 69 q 406 468 404 323 q 267 751 403 677 q 221 767 237 766 q 205 767 206 767 q 160 754 178 767 q 107 642 140 735 q 55 426 62 510 q 47 302 47 342 q 60 166 47 227 q 134 37 81 73 q 184 20 158 20 q 227 31 205 20 z "},"1":{"ha":275,"x_min":0,"x_max":220,"o":"m 207 26 q 200 97 205 33 q 191 253 195 162 q 185 338 189 287 q 180 436 182 390 q 174 534 177 481 q 171 620 172 586 q 168 677 170 657 q 164 703 167 696 q 158 710 162 710 q 144 699 157 710 q 117 672 132 688 q 85 642 100 656 q 62 624 70 628 q 34 613 45 614 q 18 612 22 612 q 3 616 7 612 q 0 622 0 619 q 20 631 0 628 q 36 635 27 632 q 51 640 45 637 q 90 673 65 648 q 140 730 115 698 q 162 756 155 749 q 175 764 170 764 q 181 762 178 764 q 186 759 184 761 q 189 723 187 756 q 191 643 190 690 q 195 531 192 595 q 201 418 198 467 q 220 58 219 129 q 220 37 220 44 q 219 27 220 30 q 215 24 218 24 q 210 24 212 24 q 207 26 208 25 z "},"2":{"ha":522,"x_min":20,"x_max":522,"o":"m 41 30 q 20 68 20 44 q 27 99 20 82 q 97 172 45 146 q 145 183 119 183 q 186 177 165 183 q 213 172 203 172 l 215 172 q 234 181 225 172 q 256 211 243 191 q 357 426 323 315 q 391 611 391 537 q 389 646 391 629 q 351 729 378 716 q 308 741 324 741 q 248 722 280 741 q 147 612 196 690 q 134 586 140 600 q 124 564 127 572 q 106 535 116 535 q 104 536 105 535 q 98 545 98 537 q 119 601 98 560 q 212 721 161 680 q 311 762 264 762 l 313 762 q 391 710 361 760 q 406 667 403 689 q 410 618 410 644 q 409 589 410 605 q 275 203 397 398 q 255 160 255 174 l 255 157 q 289 131 258 144 q 351 107 326 113 q 402 101 375 101 l 408 101 q 447 103 434 101 q 482 113 460 105 q 507 121 500 119 q 516 122 514 122 q 521 121 519 122 q 522 117 522 119 q 506 102 522 109 q 455 85 485 91 q 401 79 425 79 l 392 79 q 275 115 345 84 q 249 126 260 122 q 233 131 237 131 q 193 100 226 131 q 149 61 167 75 q 109 37 130 47 q 79 26 91 28 q 62 25 66 25 q 41 30 50 25 m 103 56 q 146 84 124 67 q 182 118 168 102 q 197 142 197 134 l 197 142 q 150 162 192 162 l 144 162 q 52 105 83 159 q 41 71 41 84 q 48 53 41 60 q 67 46 55 46 q 103 56 81 46 z "},"3":{"ha":410,"x_min":-34,"x_max":376,"o":"m 119 28 q 110 31 116 29 q 99 33 104 32 q 72 48 87 37 q 44 72 56 59 q 33 92 33 85 q 34 96 33 94 q 38 99 35 98 l 39 99 q 61 83 45 99 q 94 58 78 66 q 132 47 109 50 q 153 46 142 46 q 301 113 237 46 q 357 252 357 178 q 356 270 357 261 q 275 391 348 353 q 212 404 250 404 q 155 398 186 404 q 115 392 127 392 q 102 397 102 392 q 141 430 102 406 q 269 562 237 498 q 300 661 300 627 q 281 718 300 694 q 248 737 267 732 q 214 741 228 741 q 188 738 201 741 q 91 692 145 727 q -3 616 36 656 q -28 596 -20 596 q -33 600 -31 596 q -34 602 -34 601 q -17 629 -34 611 q 36 677 3 651 q 104 724 68 703 q 220 761 167 761 q 230 760 224 761 q 311 710 286 756 q 318 680 317 694 q 319 661 319 665 q 314 619 319 638 q 219 466 294 547 q 196 435 196 443 l 196 433 q 236 422 199 427 q 287 409 264 418 q 372 296 353 374 q 376 256 376 278 q 375 237 376 248 q 364 179 373 203 q 221 36 324 77 q 190 30 210 33 q 156 27 169 27 q 139 26 144 26 q 119 28 126 26 z "},"4":{"ha":470,"x_min":34,"x_max":470,"o":"m 389 73 q 370 195 382 81 q 362 249 367 235 q 347 263 357 263 q 310 253 343 263 q 231 227 276 242 q 138 198 170 208 q 90 189 106 189 q 62 196 74 189 q 40 218 46 204 q 34 259 34 232 q 42 323 34 288 q 70 416 50 359 q 170 646 103 519 q 191 686 182 671 q 203 708 199 701 q 211 717 208 715 q 215 719 213 719 l 216 719 q 220 712 220 718 l 220 709 q 207 676 218 700 q 174 609 197 653 q 57 294 78 415 q 53 258 53 273 q 64 221 53 233 q 71 215 68 217 q 80 212 74 212 q 96 212 85 212 q 120 214 107 212 q 158 225 132 217 q 230 248 183 233 q 349 293 336 283 l 357 300 l 353 372 q 350 433 351 415 q 350 460 350 451 l 350 473 q 353 485 351 484 l 355 485 q 357 484 356 485 q 362 481 360 484 q 365 474 363 479 q 367 459 366 470 q 370 427 368 448 q 374 372 372 406 q 378 332 376 349 q 381 312 380 315 q 397 306 384 306 q 434 311 411 306 q 458 315 450 315 q 470 309 470 315 q 469 307 470 308 q 431 290 469 300 l 422 287 q 394 276 402 282 q 386 250 386 269 q 391 187 386 231 q 393 170 392 179 q 399 107 397 131 q 401 77 401 83 l 401 73 q 396 68 399 68 q 389 73 393 68 z "},"5":{"ha":450,"x_min":0,"x_max":416,"o":"m 126 37 q 106 44 117 39 q 85 52 94 48 q 42 85 64 64 q 10 124 20 107 q 0 147 0 140 q 3 154 0 152 q 6 155 5 155 q 12 153 9 155 q 20 144 16 151 q 46 110 26 130 q 81 78 65 89 q 178 52 121 52 l 180 52 q 316 103 262 52 q 397 300 396 178 q 339 448 397 393 q 233 491 294 491 q 155 476 197 491 q 118 460 133 469 q 85 435 102 451 q 61 419 70 419 q 51 430 54 419 q 50 437 50 433 q 55 483 50 450 q 72 580 61 526 q 92 677 82 635 q 108 727 102 720 q 123 733 112 733 q 152 726 134 733 q 189 720 172 720 q 208 720 205 720 q 256 725 235 720 q 279 732 266 727 q 302 743 292 737 q 329 753 324 753 q 334 754 333 754 q 339 747 339 754 q 321 729 339 739 q 277 710 303 718 q 226 699 251 702 l 198 699 q 165 701 181 699 q 144 704 149 704 q 136 705 138 705 q 130 704 132 705 q 123 699 126 703 q 112 665 119 694 q 96 598 104 636 q 83 529 87 559 q 78 487 78 499 l 78 484 q 88 472 78 472 q 115 481 98 472 q 171 503 144 496 q 233 509 197 509 l 278 509 l 308 494 q 416 299 416 438 l 416 286 q 252 42 404 101 q 205 34 229 35 q 175 33 182 33 q 126 37 146 33 z "},"6":{"ha":397,"x_min":34,"x_max":363,"o":"m 43 170 q 34 269 34 212 l 34 283 q 45 397 35 349 q 147 646 78 536 q 195 703 167 673 q 241 744 223 733 q 291 758 269 758 q 356 713 331 758 q 361 694 361 703 l 361 692 q 359 683 361 684 q 356 683 357 683 q 346 693 352 683 q 289 737 322 737 q 210 690 254 737 q 135 583 168 648 q 94 479 94 505 q 99 467 94 470 l 102 467 q 110 468 104 467 q 128 471 118 469 q 168 478 155 477 q 185 479 180 479 q 212 477 199 479 q 313 421 273 467 q 358 338 353 376 q 363 283 363 300 q 349 201 363 241 q 265 70 316 110 q 172 30 214 30 q 135 37 153 30 q 43 170 75 58 m 328 201 q 342 287 342 243 q 341 311 342 299 q 295 412 335 368 q 185 458 247 458 q 121 448 155 458 q 79 426 90 437 q 64 385 68 414 q 52 273 52 326 q 63 178 52 222 q 123 63 90 76 q 174 50 157 50 q 245 79 209 50 q 328 201 298 120 z "},"7":{"ha":385,"x_min":0,"x_max":439,"o":"m 1 -9 q 0 -5 0 -8 l 0 -3 q 6 12 1 1 q 22 42 11 22 q 52 94 33 62 q 119 210 77 137 q 201 352 161 282 q 262 456 241 422 q 275 490 275 479 l 275 490 l 273 500 l 243 500 q 210 499 231 500 q 170 497 189 498 q 141 495 151 495 q 129 496 132 495 q 125 500 125 497 q 124 503 124 502 l 124 505 q 126 509 124 508 q 151 514 128 511 q 208 519 174 517 q 296 532 286 526 q 310 546 302 534 q 330 584 317 557 q 349 626 340 605 q 361 661 357 647 q 366 685 366 680 q 366 693 366 691 q 364 710 366 701 q 301 773 348 767 q 239 779 255 779 q 88 745 172 779 q 66 736 74 739 q 56 734 59 734 q 50 736 52 734 q 46 743 46 740 q 50 749 46 747 q 83 766 56 755 q 241 799 172 799 q 329 781 290 799 q 385 694 385 755 q 355 586 385 650 q 343 561 348 572 q 339 547 339 549 q 347 536 339 538 q 364 534 355 534 q 389 535 374 534 q 412 536 403 536 l 420 536 q 435 533 431 536 q 439 526 439 531 q 438 522 439 524 q 437 519 438 519 l 427 518 q 382 514 411 517 q 342 510 359 512 q 323 506 326 507 q 311 496 317 503 q 294 470 305 489 q 260 413 282 452 q 105 144 174 263 q 25 9 35 25 q 5 -12 13 -12 q 1 -9 3 -12 z "},"8":{"ha":374,"x_min":7,"x_max":367,"o":"m 111 7 q 12 113 33 34 q 7 153 7 132 q 55 286 7 214 q 87 328 69 307 q 140 385 104 349 q 166 416 155 402 q 177 431 177 429 q 170 447 177 437 q 146 479 163 457 q 102 592 102 536 q 111 636 102 608 q 129 686 119 664 q 161 738 142 712 q 191 770 180 763 q 230 781 202 776 q 280 787 258 786 q 297 785 287 787 q 315 781 307 784 q 354 749 342 772 q 367 703 367 726 q 366 689 367 696 q 262 486 349 591 q 239 458 247 469 q 229 443 232 448 q 227 434 227 438 q 253 397 227 426 q 317 302 298 349 q 336 197 336 256 q 211 9 336 52 q 171 1 186 1 q 154 1 156 1 q 111 7 130 1 m 211 462 q 256 510 226 472 q 307 583 286 548 q 345 701 345 650 q 344 726 345 718 q 338 739 342 734 q 316 759 328 753 q 283 765 305 764 l 273 765 q 257 764 263 765 q 237 758 248 763 q 220 750 229 753 q 206 746 212 747 q 164 705 187 741 q 129 627 140 669 q 125 591 125 608 q 173 479 125 531 q 193 460 188 463 q 200 458 198 458 q 211 462 205 458 m 182 22 q 290 92 252 37 q 316 165 316 135 q 317 196 317 195 q 292 308 317 254 q 262 355 281 329 q 224 397 242 381 q 209 408 214 407 q 203 408 204 408 q 184 400 195 408 q 150 367 172 391 q 50 236 77 292 q 32 192 36 209 q 28 158 28 176 q 29 142 28 151 q 32 114 30 125 q 40 92 35 104 q 132 22 71 36 q 157 18 146 18 q 182 22 167 18 z "},"9":{"ha":401,"x_min":27,"x_max":374,"o":"m 131 34 q 88 65 105 43 q 69 116 71 88 q 70 130 69 126 q 75 133 71 133 q 82 128 79 133 q 89 111 85 123 q 117 64 98 79 q 166 50 135 50 q 258 94 214 50 q 327 210 302 138 q 347 294 342 254 q 352 406 352 334 q 338 581 352 541 q 330 592 334 592 q 326 589 328 592 q 304 536 319 581 q 138 355 245 368 q 125 355 132 355 q 67 378 92 355 q 27 480 27 414 q 29 510 27 494 q 96 677 41 605 q 216 758 151 749 q 227 758 222 758 q 260 751 246 758 q 305 715 279 742 q 340 670 330 690 q 356 609 349 650 q 374 410 374 501 q 317 136 374 246 q 274 82 301 109 q 222 43 247 55 q 164 29 193 29 q 131 34 147 29 m 163 381 q 248 461 210 399 q 305 616 286 524 q 310 654 310 640 q 309 665 310 660 q 292 699 307 681 q 228 736 267 735 l 219 736 q 205 736 211 736 q 183 727 197 734 q 104 654 138 705 q 47 494 54 576 l 47 484 q 58 425 47 452 q 96 382 71 395 q 119 376 109 376 q 132 376 130 376 q 163 381 149 376 z "},"\u0000":{"ha":339,"x_min":0,"x_max":0,"o":""}," ":{"ha":339,"x_min":0,"x_max":0,"o":""},"!":{"ha":176,"x_min":68,"x_max":108,"o":"m 71 115 q 71 147 71 120 q 73 300 71 193 q 85 711 77 472 q 90 920 90 859 q 89 952 90 941 q 87 979 87 970 q 87 992 87 989 l 87 997 q 94 1002 90 1002 q 96 1002 95 1002 q 105 992 102 1000 q 108 922 108 982 q 106 774 108 861 q 102 602 104 688 q 96 443 99 533 q 92 283 94 353 q 88 167 90 214 q 84 115 85 120 q 81 111 83 113 q 78 109 79 109 q 75 111 77 109 q 71 115 73 113 m 71 -23 q 68 -14 68 -18 q 69 -7 68 -11 q 81 0 73 0 q 92 -5 90 0 q 94 -11 94 -9 q 88 -22 94 -17 q 79 -30 81 -30 q 71 -23 77 -30 z "},"\"":{"ha":463,"x_min":68,"x_max":395,"o":"m 216 751 l 216 752 q 217 758 216 754 q 222 768 218 762 q 248 796 227 774 q 297 845 269 818 q 347 893 324 871 q 376 920 370 914 q 387 923 382 923 l 389 923 q 395 916 395 922 q 370 888 395 914 q 312 830 345 862 q 252 772 279 798 q 223 747 226 747 q 219 748 221 747 q 216 751 217 749 m 68 800 q 68 802 68 800 q 69 806 68 804 q 75 817 71 811 q 100 844 79 823 q 149 893 121 866 q 199 942 176 920 q 229 968 222 963 q 240 972 235 972 l 241 972 q 248 965 248 970 q 222 937 248 962 q 164 878 197 911 q 104 821 131 846 q 76 796 78 796 q 71 797 73 796 q 68 800 69 798 z "},"#":{"ha":713,"x_min":68,"x_max":645,"o":"m 397 -71 q 395 -62 395 -69 q 396 -47 395 -56 q 407 22 398 -27 q 433 157 416 71 q 447 233 442 205 q 453 269 452 261 q 454 279 454 277 q 452 292 454 288 q 444 298 450 296 l 439 298 q 420 297 433 298 q 372 293 399 296 q 319 288 345 290 q 280 282 294 285 q 264 278 272 281 q 254 273 257 275 q 248 260 252 270 q 241 239 244 251 q 226 170 236 218 q 207 76 216 123 q 195 11 198 30 q 192 -13 193 -3 q 189 -26 190 -22 q 186 -32 188 -31 q 182 -33 184 -33 q 174 -24 174 -33 q 174 -12 174 -16 q 180 43 174 5 q 206 173 188 88 q 208 184 208 179 q 219 239 218 228 q 221 254 221 251 q 215 269 221 267 q 201 271 211 271 q 189 271 197 271 l 184 271 q 138 267 156 268 q 111 266 119 266 q 99 266 103 266 l 92 266 q 84 267 87 266 q 80 270 82 268 q 75 276 75 274 q 80 281 75 279 q 113 286 87 286 q 154 289 131 286 q 197 294 178 291 q 222 300 217 297 q 232 309 228 302 q 241 330 237 315 q 252 372 245 345 l 264 421 l 256 428 q 239 433 248 433 l 236 433 q 222 431 233 433 q 158 420 198 427 q 106 412 129 415 q 80 408 84 408 q 69 412 70 409 q 68 416 68 415 q 74 424 68 420 q 104 431 78 426 q 168 442 131 436 q 231 453 204 448 q 261 460 257 458 q 268 464 264 461 q 274 471 272 467 q 287 509 277 475 q 309 589 296 542 q 336 690 328 658 q 349 749 345 722 q 358 757 352 758 q 366 749 363 757 q 367 743 367 747 q 366 728 367 737 q 355 682 363 713 q 332 593 347 650 q 312 520 320 551 q 304 485 304 489 q 309 472 304 475 q 324 469 313 469 l 333 469 q 396 475 353 470 q 453 483 431 479 q 485 488 474 486 q 501 493 496 490 q 509 500 506 496 q 520 535 511 505 q 539 604 529 565 q 557 677 549 644 q 567 724 565 711 q 582 760 570 760 q 586 758 584 760 q 591 745 591 758 q 589 727 591 739 q 564 618 585 696 q 546 547 553 577 q 538 513 538 517 q 542 500 538 505 q 552 496 545 496 q 562 496 559 496 q 589 497 573 496 q 616 498 605 498 q 633 497 627 498 q 645 490 645 496 q 642 484 645 486 q 628 480 639 481 q 595 477 617 479 q 542 470 557 474 q 523 456 527 466 q 513 426 519 449 q 501 379 507 403 q 496 348 496 355 q 503 331 496 335 q 525 328 510 328 l 534 328 q 549 328 543 328 q 574 319 574 328 q 571 313 574 315 q 559 310 568 311 q 532 307 550 308 q 493 299 504 304 q 479 279 481 294 q 464 211 475 267 q 440 93 452 155 q 422 -6 429 30 q 410 -63 414 -52 q 402 -74 406 -74 q 397 -71 399 -74 m 381 314 q 460 327 450 321 q 467 336 464 329 q 475 359 471 342 q 488 408 480 376 q 494 438 494 431 q 494 448 494 446 q 491 458 494 455 q 475 463 486 462 q 443 460 467 463 q 389 454 419 458 q 336 448 359 451 q 307 442 313 444 q 300 438 304 441 q 293 432 296 435 q 282 404 290 427 q 269 355 275 380 q 262 323 262 330 q 283 304 262 304 q 292 305 288 304 q 326 309 300 306 q 381 314 351 311 z "},"$":{"ha":606,"x_min":68,"x_max":538,"o":"m 256 -171 q 255 -151 256 -167 q 254 -113 254 -134 q 252 -71 253 -83 q 247 -57 250 -59 q 235 -52 244 -54 q 213 -47 226 -50 q 140 -31 175 -43 q 86 -8 105 -20 q 68 12 68 3 q 68 16 68 14 q 74 19 70 19 q 97 9 81 19 q 141 -10 113 -1 q 197 -24 169 -20 q 228 -28 216 -28 l 231 -28 q 249 -19 243 -26 q 252 -15 250 -18 q 254 -3 253 -12 q 256 21 255 5 q 259 63 258 37 q 263 131 261 90 q 269 228 266 171 q 277 361 273 285 q 277 374 277 368 q 265 412 277 406 q 247 418 262 414 q 212 425 232 422 q 107 461 138 439 q 75 522 76 483 q 74 534 74 528 q 100 621 74 572 q 246 787 153 722 q 270 805 260 797 q 281 817 279 814 q 282 837 282 821 q 283 865 283 852 q 282 891 283 877 l 282 945 q 286 963 283 961 q 290 966 288 966 q 296 956 294 966 q 302 896 300 941 q 305 848 303 863 q 310 831 307 833 q 321 826 313 827 q 347 823 330 824 q 391 815 375 822 q 423 791 407 809 q 453 739 453 760 q 449 728 453 728 q 431 747 444 728 q 348 802 403 802 q 332 802 338 802 q 322 799 326 801 q 314 792 319 797 l 304 782 l 304 718 q 303 644 304 692 q 302 549 302 595 q 301 526 301 536 q 300 486 300 503 q 301 458 300 469 q 311 431 302 438 q 338 420 319 424 q 349 416 343 418 q 531 275 498 372 q 538 240 538 256 q 538 220 538 224 q 532 175 538 195 q 447 44 509 103 q 307 -37 384 -15 q 294 -42 301 -39 q 283 -50 288 -45 l 274 -58 l 272 -117 q 271 -149 271 -137 q 270 -167 271 -161 q 267 -176 269 -174 q 264 -178 266 -178 l 263 -178 q 256 -171 258 -178 m 271 444 q 278 466 276 448 q 282 527 281 484 q 283 648 283 570 q 284 710 284 686 q 283 745 283 733 q 282 763 283 758 q 279 769 281 768 q 269 773 275 773 q 262 772 266 773 q 228 748 251 767 q 134 640 172 703 q 95 532 95 577 q 119 477 95 496 q 208 447 143 459 q 242 440 233 441 q 257 438 252 438 q 262 439 260 438 q 271 444 268 440 m 336 -6 q 419 46 378 12 q 486 123 460 81 q 519 226 519 178 q 500 294 519 262 q 467 332 490 311 q 422 366 445 353 q 365 390 399 378 q 319 402 332 402 q 306 398 310 402 q 299 379 301 393 q 295 336 296 365 q 291 254 294 311 q 284 134 288 197 q 277 30 280 71 q 276 6 276 14 q 277 -5 276 -1 q 283 -12 279 -9 q 296 -18 288 -18 l 299 -18 q 336 -6 310 -16 z "},"%":{"ha":801,"x_min":68,"x_max":733,"o":"m 604 11 q 543 161 543 45 q 546 220 543 188 q 548 244 548 234 l 548 249 q 546 270 548 260 q 544 285 544 278 q 547 297 544 292 q 573 316 553 307 q 615 326 595 326 q 688 291 653 326 q 711 258 703 275 q 726 216 720 241 q 733 163 733 189 q 711 68 733 115 q 688 31 700 43 q 661 10 677 18 q 632 3 645 3 q 604 11 620 3 m 136 407 q 71 503 85 429 q 68 547 68 522 q 68 572 68 558 q 79 645 71 612 q 117 734 93 694 q 163 787 140 774 q 184 793 174 793 q 193 791 189 793 q 232 768 208 787 q 309 647 298 719 q 311 618 311 635 q 311 596 311 608 q 303 542 309 565 q 267 466 292 500 q 212 415 243 432 q 181 405 195 406 q 161 403 167 403 q 136 407 147 403 m 201 432 q 276 522 260 466 q 291 609 291 578 q 273 692 291 653 q 234 739 260 720 q 182 762 209 758 q 171 763 175 764 q 163 760 167 763 q 152 749 159 757 q 113 678 130 725 q 90 583 95 631 q 88 552 88 567 q 136 429 88 459 q 164 424 148 424 l 168 424 q 201 432 186 425 m 210 -76 q 264 68 210 -64 q 386 357 318 201 q 503 616 454 514 q 581 765 538 689 q 640 861 623 840 q 652 869 647 868 q 659 870 657 870 q 663 865 663 870 q 657 853 663 863 q 642 829 651 842 q 271 32 522 643 q 240 -42 254 -12 q 224 -77 227 -73 q 214 -83 218 -83 q 210 -76 210 -83 m 662 33 q 696 81 682 48 q 711 155 709 115 q 712 174 712 165 q 709 205 712 191 q 694 248 705 226 q 652 294 675 281 q 616 306 630 306 q 597 300 606 306 q 591 292 595 299 q 582 276 587 286 q 564 162 564 243 l 564 159 q 615 27 564 55 q 631 24 621 24 l 637 24 q 662 33 652 26 z "},"&":{"ha":642,"x_min":68,"x_max":574,"o":"m 325 -105 q 323 -82 324 -100 q 320 -38 321 -63 q 317 6 319 -13 q 313 28 315 24 q 308 33 311 31 q 294 35 304 35 q 263 37 283 36 q 230 38 241 37 q 211 42 219 39 q 190 52 203 45 q 95 150 128 83 q 73 208 79 182 q 68 260 68 233 q 68 279 68 269 q 161 485 72 397 q 197 517 184 507 q 233 538 210 528 q 258 552 248 545 q 269 561 268 558 l 269 562 q 260 574 269 564 q 239 598 252 585 q 189 667 203 633 q 174 747 174 701 q 201 862 174 806 q 241 915 216 890 q 292 954 266 941 q 316 967 309 961 q 324 983 323 974 q 325 999 325 992 q 323 1025 325 1010 q 322 1056 322 1044 q 330 1085 322 1085 q 343 1026 340 1085 q 348 989 345 1001 q 358 971 351 977 q 380 960 366 965 q 443 897 421 943 q 464 795 464 850 q 463 779 464 787 q 460 749 461 759 q 457 737 459 740 q 450 734 454 734 q 446 735 448 734 q 444 741 444 736 q 443 756 443 745 q 443 786 443 767 l 443 794 q 403 920 443 880 q 347 946 379 946 q 322 942 335 946 q 218 850 256 923 q 193 747 193 796 q 202 690 193 718 q 311 572 227 616 q 334 559 326 564 q 345 551 342 554 q 347 545 347 548 q 344 540 347 542 q 333 537 342 538 q 308 536 325 536 q 280 533 290 534 q 261 528 270 532 q 239 518 252 525 q 208 499 220 509 q 176 471 195 490 q 87 267 87 376 q 96 197 87 233 q 135 124 108 159 q 195 71 163 89 q 220 61 209 64 q 251 58 231 59 q 269 58 261 58 q 283 58 277 58 q 316 68 295 60 q 427 140 375 89 q 483 201 451 162 q 541 277 515 240 q 558 299 551 290 q 568 307 566 307 q 574 301 574 307 q 505 195 574 281 q 377 74 441 115 q 338 41 340 50 l 338 16 q 340 -34 338 -5 q 341 -83 341 -62 q 341 -106 342 -103 q 337 -112 340 -111 q 334 -113 335 -113 q 330 -111 332 -113 q 325 -105 326 -110 z "},"'":{"ha":315,"x_min":68,"x_max":248,"o":"m 68 800 q 68 802 68 800 q 69 806 68 804 q 75 817 71 811 q 100 844 79 823 q 149 893 121 866 q 199 942 177 920 q 229 968 222 963 q 240 972 235 972 l 241 972 q 248 965 248 970 q 222 937 248 962 q 164 878 197 911 q 104 821 131 846 q 76 796 78 796 q 72 797 74 796 q 68 800 69 798 z "},"(":{"ha":498,"x_min":68,"x_max":431,"o":"m 314 -123 q 251 -87 276 -104 q 202 -45 226 -69 q 77 215 103 58 q 68 329 68 264 q 76 449 68 393 q 205 834 110 654 q 332 1025 262 937 q 425 1113 401 1113 q 431 1109 431 1113 q 400 1071 431 1101 q 246 866 321 990 q 115 541 158 718 q 95 434 100 477 q 90 328 90 392 q 94 232 90 269 q 111 153 98 195 q 172 27 131 87 q 259 -68 212 -34 q 312 -99 280 -83 q 361 -121 343 -116 q 376 -133 376 -125 q 374 -138 376 -136 q 363 -140 371 -140 l 361 -140 q 346 -137 356 -140 q 314 -123 334 -133 z "},")":{"ha":438,"x_min":68,"x_max":370,"o":"m 127 -162 l 127 -161 q 131 -151 127 -158 q 144 -130 136 -142 q 240 18 210 -37 q 289 130 271 73 q 349 511 349 306 q 342 644 349 591 q 317 759 336 697 q 214 979 281 877 q 85 1117 148 1082 q 68 1132 68 1126 q 73 1138 68 1135 q 79 1139 76 1139 q 157 1086 103 1139 q 344 734 286 949 q 365 630 359 678 q 370 515 370 581 q 335 220 370 357 q 282 57 313 126 q 194 -93 251 -13 q 148 -155 159 -144 q 132 -167 136 -167 q 127 -162 128 -167 z "},"*":{"ha":344,"x_min":68,"x_max":276,"o":"m 155 630 q 153 653 154 633 q 151 702 151 673 q 148 751 149 730 q 145 774 146 772 q 136 781 142 781 q 103 765 124 781 q 73 749 82 749 q 68 756 68 749 q 93 783 68 763 q 113 798 104 791 q 123 807 121 804 q 127 817 127 812 q 125 825 127 821 q 96 850 119 833 q 68 877 68 871 q 73 883 68 883 q 103 869 82 883 q 132 856 123 856 q 138 858 136 856 q 145 915 145 865 q 146 952 145 941 q 151 967 148 964 q 156 972 154 972 q 161 967 158 972 q 165 952 164 964 q 167 911 167 940 q 168 874 167 890 q 170 855 169 859 q 180 849 173 849 q 186 850 182 849 q 225 871 197 853 q 261 892 254 890 q 270 895 268 895 q 276 889 275 895 l 276 888 q 269 878 276 884 q 237 855 260 871 q 209 835 220 844 q 195 823 197 826 q 193 817 193 820 q 197 807 193 812 q 227 781 204 798 q 255 753 255 760 q 250 746 255 746 q 220 762 241 746 q 182 783 193 783 q 176 781 178 783 q 170 713 170 773 l 170 702 q 169 662 169 677 q 168 639 168 647 q 166 629 167 631 q 163 626 165 626 l 161 626 q 158 627 159 626 q 155 630 156 627 z "},"+":{"ha":507,"x_min":68,"x_max":439,"o":"m 219 92 q 217 133 218 94 q 216 227 216 172 l 216 290 q 215 342 216 326 q 205 370 213 366 q 186 373 197 373 q 168 372 178 373 q 151 371 161 372 q 111 369 123 369 q 92 368 99 368 l 82 368 q 71 370 74 368 q 68 374 68 371 q 68 376 68 375 q 81 385 68 382 q 141 391 96 389 q 208 399 200 395 q 216 411 213 402 q 219 442 218 420 q 220 509 220 465 q 221 566 220 542 q 223 592 222 589 q 227 595 224 594 q 230 596 229 596 l 233 595 q 236 594 235 595 q 238 587 237 592 q 239 572 239 583 q 239 545 239 562 q 239 503 239 528 q 240 444 239 464 q 241 414 240 423 q 245 404 243 406 q 250 400 246 401 q 260 398 254 399 q 274 398 267 398 l 290 398 q 339 399 308 398 q 404 400 377 400 q 434 399 431 400 q 439 394 439 397 q 439 391 439 392 q 435 385 439 388 q 406 382 433 384 q 341 378 379 380 q 291 376 309 377 q 263 374 273 375 q 251 371 254 373 q 245 367 247 370 q 241 357 242 364 q 238 332 239 349 q 237 284 237 315 q 235 214 235 252 q 235 153 235 176 q 230 94 235 96 q 223 90 226 90 q 219 92 221 90 z "},",":{"ha":210,"x_min":68,"x_max":142,"o":"m 70 31 q 68 35 68 33 l 68 36 q 72 43 68 39 q 83 54 75 47 q 121 136 121 93 q 112 178 121 157 q 104 199 104 193 q 111 206 104 206 q 126 194 117 206 q 138 170 134 182 q 142 140 142 155 q 141 123 142 132 q 127 79 138 99 q 98 41 113 54 q 76 29 83 29 q 70 31 73 29 z "},"-":{"ha":507,"x_min":68,"x_max":439,"o":"m 131 328 q 101 327 111 328 q 87 327 92 327 l 79 327 q 71 329 73 328 q 68 332 68 330 q 68 334 68 334 q 81 344 68 340 q 141 350 96 347 q 239 355 199 353 q 339 358 278 356 q 404 359 376 359 q 434 358 431 359 q 439 351 439 356 q 435 344 439 347 q 390 340 431 342 q 246 333 318 336 q 131 328 189 332 z "},".":{"ha":165,"x_min":68,"x_max":98,"o":"m 68 191 q 73 201 68 197 q 83 206 77 206 q 94 202 91 206 q 98 193 98 198 l 97 190 q 90 175 94 177 q 82 173 85 173 q 74 176 78 173 q 68 191 68 181 z "},"/":{"ha":785,"x_min":68,"x_max":717,"o":"m 68 -41 q 161 119 72 -28 q 377 469 250 266 q 484 644 414 528 q 613 861 553 760 q 682 981 673 963 q 696 1007 690 996 q 704 1020 702 1019 q 709 1022 707 1022 q 713 1019 711 1022 q 717 1011 717 1016 q 716 1006 717 1009 q 668 920 713 998 q 559 734 623 842 q 434 524 495 625 q 337 366 373 422 q 253 231 300 307 q 170 94 205 154 q 108 -4 134 36 q 79 -47 83 -44 q 75 -49 77 -49 q 72 -49 73 -49 l 71 -49 q 68 -46 69 -48 q 68 -41 68 -43 z "},":":{"ha":165,"x_min":68,"x_max":98,"o":"m 68 262 q 73 274 68 269 q 83 278 77 278 q 94 274 91 278 q 98 264 98 269 l 98 262 q 90 247 94 249 q 82 245 85 245 q 74 248 78 245 q 68 262 68 253 m 68 425 q 73 436 68 431 q 83 440 77 440 q 94 436 91 440 q 98 426 98 431 l 98 424 q 90 409 94 411 q 82 408 85 408 q 74 410 78 408 q 68 425 68 415 z "},";":{"ha":210,"x_min":68,"x_max":142,"o":"m 70 103 q 68 107 68 105 q 69 111 68 109 q 84 126 72 115 q 122 208 122 165 q 113 250 122 229 q 105 271 105 264 q 112 278 105 278 q 126 267 117 278 q 138 242 135 255 q 142 213 142 228 q 141 196 142 205 q 128 151 138 171 q 99 113 114 125 q 76 101 84 101 q 70 103 73 101 m 95 425 q 99 436 95 431 q 110 440 103 440 q 121 436 118 440 q 125 427 125 432 l 124 424 q 116 409 121 411 q 109 408 111 408 q 101 410 105 408 q 95 425 95 415 z "},"<":{"ha":300,"x_min":68,"x_max":232,"o":"m 113 391 q 158 435 129 406 q 198 474 181 458 q 218 491 216 490 l 220 491 q 223 490 222 491 q 228 487 226 489 q 229 485 229 486 l 229 484 q 225 477 229 481 q 216 466 222 473 q 197 446 209 458 q 167 416 185 434 q 125 374 140 389 q 106 352 111 359 q 100 342 100 345 l 100 340 q 101 336 100 338 q 109 326 103 332 q 129 307 115 319 q 164 273 142 294 q 210 228 191 246 q 231 205 229 209 q 232 201 232 203 q 231 197 232 199 q 224 194 228 194 l 222 195 q 199 213 219 196 q 151 256 179 231 q 123 281 135 271 q 111 292 117 288 q 97 305 103 300 q 68 340 68 328 l 68 340 q 98 378 68 351 q 113 391 105 383 z "},"=":{"ha":507,"x_min":68,"x_max":439,"o":"m 131 420 q 101 419 110 419 q 87 419 92 419 l 79 419 q 71 420 73 419 q 68 425 68 422 l 68 427 q 81 435 68 433 q 141 441 96 439 q 239 447 199 445 q 339 450 278 448 q 404 451 377 451 q 434 450 431 451 q 439 443 439 448 q 435 435 439 439 q 390 431 431 434 q 247 425 318 427 q 131 420 189 423 m 131 237 q 101 235 110 235 q 87 235 92 235 l 79 235 q 71 237 73 235 q 68 241 68 238 l 68 243 q 81 252 68 249 q 141 258 96 256 q 239 263 199 262 q 339 266 278 264 q 404 267 377 267 q 434 267 431 267 q 439 259 439 264 q 435 252 439 255 q 390 248 431 250 q 251 241 320 244 q 131 237 191 239 z "},">":{"ha":300,"x_min":68,"x_max":233,"o":"m 187 295 q 142 251 171 279 q 101 211 119 227 q 81 195 84 195 l 79 195 q 77 195 78 195 q 72 199 74 197 q 71 201 71 199 l 71 202 q 74 208 71 204 q 84 220 77 212 q 103 239 91 227 q 134 270 115 251 q 175 311 160 296 q 194 333 189 326 q 199 343 199 340 l 199 345 q 199 349 199 347 q 191 359 197 353 q 172 379 184 366 q 136 413 159 391 q 90 458 109 439 q 68 480 71 477 q 68 484 68 482 q 69 488 68 486 q 76 491 72 491 l 78 491 q 101 472 81 490 q 149 429 121 454 q 189 393 174 406 q 203 380 197 386 q 233 346 233 357 q 201 309 233 334 q 187 295 195 302 z "},"?":{"ha":534,"x_min":68,"x_max":534,"o":"m 288 111 q 276 160 277 131 q 276 193 276 189 q 286 294 276 244 q 324 420 298 355 q 404 587 350 485 q 491 770 468 709 q 514 876 514 831 l 514 879 q 512 910 514 899 q 505 932 511 920 q 403 994 475 994 q 381 992 393 994 q 320 978 348 988 q 260 945 293 967 q 96 718 136 861 q 87 646 87 681 q 88 626 87 636 q 111 557 92 583 q 119 537 119 544 q 117 532 119 534 q 113 531 115 531 q 95 545 107 531 q 71 603 75 571 q 68 650 68 635 q 76 720 68 684 q 171 895 102 819 q 334 1004 240 971 q 361 1010 348 1008 q 401 1012 375 1012 q 431 1011 420 1012 q 448 1008 441 1010 q 463 1002 455 1006 q 523 943 503 983 q 530 920 528 932 q 533 889 532 909 q 534 873 534 882 q 514 774 534 828 q 423 581 492 709 q 384 504 402 541 q 358 450 366 467 q 325 362 340 409 q 304 280 311 316 q 297 218 298 244 q 297 184 297 193 q 300 140 297 156 q 305 115 305 125 q 299 104 305 105 q 294 105 297 104 q 288 111 290 107 m 290 -33 q 287 -23 287 -28 q 288 -17 287 -20 q 300 -9 292 -9 q 311 -14 309 -9 q 313 -20 313 -19 q 307 -32 313 -26 q 298 -39 300 -39 q 290 -33 296 -39 z "},"@":{"ha":753,"x_min":68,"x_max":686,"o":"m 291 -85 q 135 32 195 -62 q 68 263 75 125 l 68 284 q 130 557 68 431 q 309 749 197 692 q 412 775 359 775 l 423 775 q 473 770 450 775 q 527 749 498 764 q 577 714 551 736 q 621 668 604 692 q 671 563 656 618 q 686 462 686 507 q 684 426 686 444 q 613 250 669 313 q 551 214 582 214 q 524 222 537 214 q 465 323 486 239 q 458 349 461 338 q 453 361 454 359 q 450 363 452 363 q 426 316 441 363 q 319 179 382 179 q 268 236 289 179 q 261 266 263 252 q 260 315 260 281 q 261 364 260 347 q 268 396 263 380 q 341 515 292 477 q 412 546 380 546 q 455 529 436 546 q 472 511 467 520 q 478 481 477 501 q 479 420 479 462 q 481 354 479 374 q 486 321 482 334 q 551 236 513 236 q 597 262 575 236 q 661 405 642 313 q 665 460 665 429 l 665 475 q 656 544 663 516 q 460 751 606 715 q 419 755 439 755 q 235 670 323 755 q 98 400 135 567 q 90 327 91 363 q 88 273 88 290 q 91 218 88 241 q 271 -59 125 3 q 296 -65 283 -64 q 334 -67 309 -67 q 365 -66 355 -67 q 382 -64 375 -66 q 399 -56 389 -62 q 454 -16 431 -42 q 504 61 477 10 q 536 105 526 105 q 541 100 539 105 l 541 99 q 534 79 541 94 q 515 40 527 62 q 492 1 504 19 q 336 -90 430 -90 q 291 -85 315 -90 m 349 212 q 390 277 372 232 q 431 415 408 322 q 450 500 450 486 q 449 504 450 503 q 434 519 446 513 q 412 526 422 526 q 385 518 402 526 q 352 498 367 509 q 295 413 313 465 q 278 313 278 361 q 279 283 278 298 q 300 215 286 229 q 324 201 314 201 q 349 212 336 201 z "},"A":{"ha":461,"x_min":-27,"x_max":461,"o":"m 340 -58 q 335 -2 336 -47 q 335 60 335 43 q 337 208 335 125 q 346 411 340 313 q 353 551 350 481 q 356 658 356 621 q 357 667 356 663 l 357 688 q 355 731 357 717 q 347 753 353 751 q 330 756 340 756 q 316 755 323 756 q 311 755 314 755 q 222 746 269 751 q 158 739 175 741 q 131 724 140 736 q 108 677 121 711 q 34 414 64 562 q -1 134 5 266 q -3 98 -2 112 q -5 79 -3 85 q -8 71 -6 73 q -14 68 -10 68 q -21 74 -19 68 q -23 98 -23 80 q -20 151 -23 116 q 81 662 -1 433 q 92 695 87 680 q 96 713 96 709 q 90 725 96 724 q 79 726 83 726 q 37 721 66 726 q 2 716 18 718 q -16 713 -13 713 q -25 717 -23 713 q -27 723 -27 721 q -25 728 -27 726 q -4 733 -23 730 q 41 742 14 737 q 88 750 68 746 q 112 758 108 755 q 124 775 115 760 q 144 810 134 789 q 269 969 216 948 q 288 972 279 972 q 327 956 310 972 q 371 831 358 929 q 382 789 374 797 q 420 781 390 781 q 456 776 450 781 q 461 770 461 772 q 424 761 461 763 l 416 761 q 389 756 397 761 q 379 729 381 751 q 376 657 377 707 q 376 633 376 646 q 371 507 375 584 q 363 361 368 430 q 356 208 358 273 q 353 69 354 142 q 353 -11 353 18 q 351 -53 353 -41 q 349 -66 350 -66 q 347 -66 347 -66 q 340 -58 345 -66 m 282 772 q 330 778 315 775 q 348 788 345 781 q 351 811 351 795 q 345 863 351 831 q 330 915 338 895 q 290 951 314 951 q 264 943 278 951 q 171 818 223 918 q 153 772 153 785 q 156 765 153 767 q 170 764 158 764 q 282 772 197 764 z "},"B":{"ha":483,"x_min":-27,"x_max":456,"o":"m 26 13 q -22 136 -6 39 q -27 233 -27 168 l -27 250 q -21 381 -26 328 q 81 749 3 593 q 101 793 93 774 q 109 815 109 812 q 101 854 109 827 q 84 899 92 882 q 75 924 75 916 q 82 930 75 930 q 97 918 89 930 q 113 886 106 905 q 135 854 123 854 q 139 854 137 854 q 149 864 142 857 q 165 881 156 871 q 269 963 220 943 q 318 971 290 971 q 365 963 346 971 q 448 847 422 935 q 455 789 454 822 q 456 743 456 757 q 453 692 456 713 q 269 327 425 494 q 246 300 255 311 q 237 285 237 288 q 240 278 237 281 q 254 272 243 275 q 284 266 264 269 q 399 193 370 249 q 408 153 408 174 q 396 105 408 130 q 247 26 353 26 q 166 53 199 26 q 149 64 157 60 q 138 69 140 69 q 119 52 131 69 q 53 1 89 1 q 38 4 44 1 q 26 13 33 7 m 207 295 q 335 443 278 355 q 416 618 392 531 q 434 711 432 675 q 436 762 436 747 q 430 831 436 800 q 375 934 410 916 q 319 951 340 951 q 243 926 284 951 q 181 869 213 905 q 140 810 150 833 q 139 800 139 807 q 140 789 139 795 q 146 742 140 774 q 168 572 162 640 q 175 411 174 504 q 176 351 176 375 q 177 313 176 328 q 178 290 178 298 q 180 280 179 283 q 183 278 182 278 q 191 283 184 278 q 207 295 198 288 m 295 52 q 361 90 333 60 q 389 152 389 120 q 359 210 389 180 q 310 239 338 229 q 231 253 281 249 q 204 256 216 254 q 186 258 191 258 q 182 260 184 260 q 178 258 180 260 q 174 249 176 257 q 169 231 172 244 q 164 201 167 217 q 158 171 161 186 q 153 146 155 155 q 149 119 149 129 l 149 116 q 156 96 149 105 q 249 46 186 46 q 295 52 271 46 m 75 31 q 138 172 118 68 q 158 385 158 277 q 156 459 158 421 q 140 637 151 551 q 123 744 130 724 q 114 753 119 753 q 77 694 100 753 q 30 552 48 625 q -1 381 12 480 q -6 248 -6 342 q -5 181 -6 205 q -3 143 -5 157 q 1 115 -1 129 q 56 23 22 23 q 75 31 65 23 z "},"C":{"ha":555,"x_min":-27,"x_max":555,"o":"m 378 3 q 245 102 302 26 q 180 262 193 178 q 168 404 168 347 q 179 542 168 471 q 182 567 182 557 q 179 583 182 577 q 144 607 173 594 q 46 680 87 634 q -11 760 5 724 q -27 814 -27 796 q -22 831 -27 825 q -16 835 -19 835 q -7 812 -9 835 q 40 717 0 768 q 132 635 81 666 q 178 618 162 618 q 191 623 187 618 q 199 639 194 627 q 208 667 203 651 q 315 874 248 792 q 458 972 383 957 q 476 974 467 974 q 545 925 523 974 q 552 903 551 914 q 554 865 554 892 q 547 802 553 825 q 345 585 499 640 q 316 579 330 581 q 267 577 301 577 q 237 577 248 577 q 220 575 226 576 q 213 573 215 574 q 208 568 210 571 q 194 510 199 555 q 189 435 189 465 q 188 399 188 405 q 192 317 188 353 q 286 85 212 165 q 374 26 328 40 q 419 19 397 19 q 525 74 479 19 q 539 90 533 84 q 548 96 545 96 l 549 96 q 555 88 555 94 q 550 75 555 83 q 517 37 539 57 q 471 7 494 17 q 435 -1 450 0 q 414 -1 419 -1 q 378 3 395 -1 m 328 602 q 434 659 384 616 q 510 758 484 701 q 531 827 527 796 q 535 873 535 857 q 530 908 535 893 q 473 954 514 953 q 357 890 421 951 q 229 663 273 802 q 219 620 219 633 l 219 618 q 233 600 220 605 q 253 597 241 597 q 271 597 264 597 q 296 597 283 597 q 328 602 315 599 z "},"D":{"ha":498,"x_min":-27,"x_max":403,"o":"m 94 -15 q 56 5 76 -10 q 24 37 37 20 q 12 65 12 54 l 12 68 q 17 76 13 76 q 36 57 23 76 q 118 3 71 3 q 174 19 144 3 q 311 173 252 62 q 385 529 385 326 q 383 583 385 555 q 330 861 372 755 q 227 970 288 967 q 194 960 213 970 q 159 931 176 949 q 112 864 134 903 q 90 808 90 825 q 93 788 90 804 q 103 750 97 771 q 137 599 128 665 q 146 464 146 533 q 145 433 146 449 q 80 151 138 211 q 52 140 66 140 q 26 151 39 140 q -4 201 9 164 q -24 288 -17 239 q -27 347 -27 317 q -27 386 -27 378 q -24 462 -27 428 q 38 746 -11 602 q 53 792 50 779 q 56 812 56 805 q 56 816 56 814 q 41 854 53 829 q 18 892 28 879 q 8 911 8 905 q 16 917 8 917 q 31 909 24 917 q 50 881 39 901 q 61 865 56 872 q 68 856 66 858 q 73 854 71 854 q 82 859 77 854 q 106 895 90 867 q 186 979 145 956 q 216 990 205 989 q 229 990 227 990 q 265 982 249 990 q 300 951 281 973 q 333 904 319 929 q 398 659 378 814 q 403 543 403 615 l 403 524 q 396 391 402 437 q 244 47 361 161 q 117 -18 176 -18 q 94 -15 106 -18 m 70 172 q 113 291 98 204 q 127 453 127 378 q 125 513 127 483 q 109 641 120 576 q 85 737 97 705 q 72 753 79 753 q 47 710 60 753 q -4 478 0 561 q -9 372 -9 395 q 20 197 -9 265 q 52 163 35 163 q 70 172 61 163 z "},"E":{"ha":315,"x_min":-27,"x_max":342,"o":"m 82 9 q -22 191 -1 24 q -27 317 -27 231 q -22 464 -27 404 q -13 577 -18 512 q -1 697 -7 642 q 7 771 5 753 q 10 809 9 784 q 12 859 12 833 q 13 901 12 884 q 16 920 14 918 q 62 929 20 922 q 161 945 104 937 q 264 959 217 953 q 323 966 312 966 q 333 964 328 966 q 339 961 337 963 q 342 956 342 958 q 302 944 342 947 q 208 931 266 940 q 101 915 150 923 q 47 903 53 907 q 40 896 42 901 q 36 879 37 890 q 33 844 35 867 q 31 815 33 829 q 29 791 30 800 q 28 781 28 785 q 32 767 28 772 q 56 760 37 760 l 60 760 q 130 769 82 762 q 184 776 168 774 q 208 778 200 778 q 216 777 213 778 q 222 771 222 776 l 222 770 q 222 766 222 768 q 217 763 221 764 q 202 760 212 762 q 175 755 193 758 q 129 749 157 753 q 124 748 127 748 q 33 730 45 736 q 27 725 29 728 q 23 713 24 722 q 19 686 21 704 q 14 636 17 667 q -8 298 -8 422 q -5 216 -8 251 q 47 53 7 90 q 106 26 71 26 q 143 32 123 26 q 184 48 161 37 q 252 88 208 60 q 289 110 274 101 q 307 118 304 118 q 312 115 310 117 q 313 110 313 113 q 267 73 313 102 q 199 33 224 46 q 155 14 173 19 q 104 7 127 7 q 82 9 92 7 z "},"F":{"ha":248,"x_min":-27,"x_max":330,"o":"m -18 -27 q -24 28 -21 -16 q -27 121 -27 73 q -19 374 -27 177 q 0 741 -10 572 q 3 791 1 768 q 6 851 5 826 q 8 894 7 876 q 11 923 9 911 q 12 940 12 934 q 14 950 13 947 q 16 954 15 953 q 18 956 17 956 q 20 958 19 957 q 33 964 24 961 q 60 971 41 967 q 114 980 79 975 q 205 993 149 985 q 273 1002 247 999 q 311 1005 298 1005 q 327 1004 324 1006 q 330 1000 330 1002 q 329 996 330 998 q 319 991 328 994 q 288 984 311 988 q 221 975 265 981 q 42 943 56 953 q 36 937 39 941 q 32 930 33 933 q 27 880 31 923 q 21 782 24 836 q 17 688 18 727 l 14 634 l 24 628 q 30 625 27 625 q 36 625 33 625 l 42 625 q 65 626 50 625 q 105 631 80 628 q 162 638 146 637 q 184 640 178 640 q 195 638 191 640 q 201 631 201 637 l 201 630 q 201 627 201 628 q 196 624 200 625 q 181 621 191 623 q 153 617 171 619 q 106 610 134 614 l 101 610 q 51 603 72 606 q 26 597 30 599 l 25 597 q 19 592 22 595 q 14 581 16 589 q 11 553 12 572 q 7 502 9 534 q 3 418 5 469 q -2 293 1 367 q -7 158 -7 186 q -7 119 -7 129 q -5 49 -7 83 q -3 2 -4 18 q -3 -20 -3 -14 q -3 -28 -3 -26 q -9 -33 -6 -33 l -11 -33 q -18 -27 -16 -33 z "},"G":{"ha":462,"x_min":-27,"x_max":380,"o":"m 69 -18 q -11 97 16 12 q -25 192 -22 140 q -27 274 -27 245 q -24 361 -27 318 q 34 662 -9 511 q 132 906 77 812 q 207 987 173 973 q 257 1000 240 1000 q 313 978 287 1000 q 365 843 362 934 q 366 821 366 830 q 364 800 366 807 q 357 792 362 792 q 354 793 356 792 q 350 800 351 793 q 349 822 349 806 q 305 957 349 901 q 258 980 284 980 q 231 974 245 980 q 149 895 187 957 q 72 714 109 828 q 14 488 34 601 q -8 257 -8 356 q 19 74 -8 146 q 74 3 40 24 q 92 -5 84 -3 q 113 -7 100 -7 q 227 75 173 -7 q 277 168 253 114 q 330 309 301 222 q 342 347 338 333 q 348 368 347 361 q 349 377 349 374 l 349 380 q 347 386 349 383 q 341 392 345 390 q 337 395 338 395 q 320 392 335 395 q 286 386 306 389 q 252 380 267 382 q 234 377 237 377 q 227 381 229 377 q 225 386 225 385 q 227 392 225 389 q 250 398 230 393 q 299 409 271 404 q 348 418 335 416 q 366 419 360 419 q 375 418 372 419 q 380 407 380 415 q 367 358 380 401 q 336 265 353 314 q 308 189 319 216 q 155 -20 235 14 q 113 -27 133 -27 q 69 -18 90 -27 z "},"H":{"ha":607,"x_min":-27,"x_max":593,"o":"m 502 -80 q 499 -70 500 -77 q 496 -54 497 -62 q 492 -22 495 -45 q 485 28 489 1 q 470 157 476 94 q 459 315 465 220 q 451 469 454 388 q 442 715 448 550 q 440 758 441 743 q 438 778 439 772 q 433 787 437 784 q 426 791 431 789 q 417 793 421 793 q 370 788 412 793 q 275 777 328 783 q 181 766 222 771 q 134 759 140 760 q 123 754 127 758 q 118 741 119 751 q 116 710 116 730 q 115 655 115 690 q 119 399 115 540 q 127 193 123 258 q 130 148 129 163 q 131 125 131 132 q 130 118 131 119 q 125 113 128 113 l 123 113 q 115 119 119 113 q 105 242 111 132 q 97 517 100 353 q 94 653 96 605 q 92 721 93 701 q 88 743 90 741 q 77 750 84 750 q 68 751 70 751 q 24 745 54 751 q -5 741 3 742 q -15 741 -12 741 q -23 741 -21 741 q -27 747 -27 743 q -22 754 -27 751 q -3 761 -17 758 q 39 768 12 764 q 47 770 43 769 q 81 778 71 772 q 92 796 91 783 q 94 829 94 810 l 94 931 q 94 942 94 938 q 94 947 94 945 q 96 949 95 949 q 98 949 96 949 l 99 949 q 107 943 104 949 q 112 918 110 936 q 114 866 113 900 q 117 809 115 827 q 124 787 119 791 q 140 783 129 783 q 196 788 151 783 q 293 800 241 793 q 385 812 346 806 q 429 820 425 818 q 435 826 433 822 q 439 833 438 829 q 441 870 440 838 q 444 947 442 902 q 446 1013 445 990 q 448 1045 447 1036 q 452 1055 450 1055 q 457 1057 454 1057 q 459 1057 458 1057 q 463 1043 462 1055 q 465 1006 465 1031 q 463 940 465 981 l 461 833 l 471 827 q 478 823 475 824 q 484 823 481 823 l 492 823 q 515 825 500 823 q 570 829 551 829 q 592 825 589 829 q 593 822 593 823 q 543 808 593 812 q 498 803 513 804 q 478 799 484 801 q 469 792 472 796 q 465 788 467 790 q 463 779 464 785 q 463 764 463 773 q 463 747 463 755 l 463 728 q 464 676 463 708 q 469 502 465 586 q 480 295 473 417 q 487 191 484 230 q 494 117 490 153 q 505 28 498 82 q 512 -33 509 -6 q 515 -67 515 -60 q 511 -83 513 -80 q 507 -85 509 -85 q 502 -80 505 -85 z "},"I":{"ha":212,"x_min":-27,"x_max":239,"o":"m 3 -41 q 2 -39 2 -40 q 39 -19 2 -29 q 69 -9 58 -13 q 85 -2 80 -5 q 94 6 91 1 q 98 13 97 9 q 99 24 99 16 q 97 51 99 33 q 92 98 96 68 q 84 184 88 134 q 78 275 80 235 q 69 524 71 385 q 66 748 66 663 q 67 841 66 798 q 68 935 68 907 q 65 966 68 962 q 64 968 65 967 q 62 971 64 970 q 56 972 60 972 q 51 972 53 972 q 38 972 45 972 q 7 969 27 971 q -3 968 2 968 q -16 967 -13 967 q -21 967 -20 967 q -25 968 -24 967 q -27 970 -27 968 q -26 976 -27 973 q -22 979 -24 978 q 3 987 -19 982 q 53 998 24 992 q 106 1008 81 1004 q 134 1012 119 1010 q 157 1016 149 1015 q 193 1019 177 1019 q 212 1015 210 1019 q 214 1013 214 1014 q 204 1005 214 1008 q 157 996 192 1000 q 112 986 126 991 q 94 971 98 982 q 90 937 90 961 q 88 838 88 905 q 87 722 87 770 l 87 624 q 90 456 88 523 q 111 98 97 236 q 117 54 115 70 q 120 31 119 38 q 124 20 122 23 q 130 14 127 17 q 137 12 134 12 q 141 12 140 12 q 152 13 145 12 q 180 18 162 14 q 226 25 214 25 q 239 16 239 24 q 238 12 239 14 q 234 9 237 10 q 223 6 231 7 q 201 2 215 5 q 134 -14 176 -3 q 54 -35 92 -24 q 26 -43 36 -40 q 13 -46 16 -46 q 9 -46 10 -46 q 5 -45 6 -46 q 3 -41 3 -44 z "},"J":{"ha":545,"x_min":-27,"x_max":436,"o":"m 159 -42 q 12 171 45 -7 q 4 260 4 214 q 39 459 4 354 q 73 530 62 530 q 79 522 79 530 l 79 520 q 67 481 78 510 q 25 267 25 370 q 26 241 25 254 q 139 -12 36 47 q 161 -22 153 -20 q 191 -24 170 -24 q 220 -23 210 -24 q 242 -15 230 -21 q 395 229 353 36 q 411 332 407 282 q 416 459 416 382 q 372 946 416 703 q 358 988 366 980 q 334 996 351 996 q 326 996 330 996 q 257 987 301 995 q 117 959 214 980 q 29 941 60 947 q -8 935 -1 935 q -18 935 -16 935 q -27 937 -26 935 l -27 939 q -26 943 -27 940 q -21 949 -24 946 q -16 952 -18 952 l 24 960 q 119 980 62 968 q 223 1002 185 994 q 288 1013 262 1009 q 340 1018 313 1016 q 362 1019 355 1019 q 372 1017 369 1019 q 376 1012 374 1016 q 392 950 382 1002 q 410 835 401 898 q 432 609 427 712 q 436 454 436 507 q 432 340 436 389 q 353 61 414 163 q 270 -23 314 1 q 191 -46 226 -46 q 159 -42 175 -46 z "},"K":{"ha":400,"x_min":-27,"x_max":373,"o":"m 360 3 q 350 22 356 9 q 334 66 345 35 q 304 152 323 96 q 268 256 287 204 q 239 336 250 308 q 50 667 144 570 q 32 685 39 679 q 22 692 25 691 q 15 693 18 693 l 12 693 q 3 691 6 693 q -2 680 -1 688 q -4 655 -4 672 q -5 609 -5 638 q 1 372 -5 505 q 18 134 7 238 q 25 62 22 94 q 29 27 28 35 l 29 20 q 24 3 29 3 q 17 7 21 3 q 0 109 10 18 q -16 317 -9 199 q -21 427 -18 348 q -25 588 -23 505 q -27 717 -26 671 q -26 770 -27 731 q -23 852 -25 808 q -20 929 -22 897 q -18 966 -19 962 q -12 973 -16 973 l -10 973 q -7 971 -8 973 q -5 964 -6 969 q -4 947 -5 958 q -4 919 -4 937 q -3 874 -3 901 q -3 803 -3 833 q -1 770 -2 774 q 7 764 1 764 q 54 797 19 764 q 176 945 141 878 q 186 962 181 956 q 193 968 191 968 q 199 959 199 968 l 199 957 q 190 928 198 945 q 52 768 159 867 q 28 744 37 754 q 19 730 19 733 q 27 718 19 727 q 48 698 35 709 q 273 304 162 592 q 309 204 286 270 q 351 79 332 138 q 372 11 370 21 q 373 5 373 7 q 369 -1 373 -1 q 364 1 367 -1 q 360 3 361 2 z "},"L":{"ha":294,"x_min":-27,"x_max":294,"o":"m 16 26 q -27 218 -27 49 l -27 233 q 23 786 -25 417 q 32 863 28 827 q 36 913 36 900 q 37 937 36 927 q 40 949 39 947 q 47 954 44 954 q 57 947 52 954 q 59 935 59 944 q 57 902 59 925 q 50 836 55 880 q 36 722 45 793 q -7 217 -7 395 q 9 65 -7 92 q 47 39 26 39 q 94 53 66 39 q 170 99 116 64 q 267 165 223 134 q 290 176 283 176 q 294 174 292 176 q 294 172 294 173 q 279 151 294 165 q 220 108 260 135 q 140 57 180 81 q 83 26 100 33 q 54 19 64 19 q 43 19 44 19 q 16 26 26 19 z "},"M":{"ha":738,"x_min":-27,"x_max":670,"o":"m 605 -7 q 597 44 601 3 q 594 129 594 85 q 635 576 594 251 q 651 808 651 716 q 641 921 651 879 q 602 965 627 965 q 485 833 558 965 q 407 634 442 751 q 362 426 371 517 q 345 384 357 384 q 332 392 339 384 q 307 478 321 409 q 281 642 292 547 q 260 791 269 746 q 243 852 252 836 q 214 876 231 876 q 209 875 212 876 q 163 830 191 869 q 109 732 136 791 q 78 655 91 692 q 66 607 66 619 q 69 585 66 602 q 77 549 72 568 q 110 292 110 412 l 110 274 q 71 66 110 142 q 22 15 49 15 q -11 42 -1 15 q -24 91 -21 64 q -27 164 -27 119 l -27 196 q 20 536 -27 351 l 37 606 l 32 627 q 26 647 30 636 q 18 667 22 659 q 12 683 14 675 q 9 694 9 690 q 14 703 9 703 q 18 702 16 703 q 34 685 26 699 q 51 668 43 668 q 54 669 53 668 q 77 707 64 673 q 139 831 105 779 q 199 894 174 883 q 218 898 210 898 q 258 866 242 898 q 293 708 280 823 q 332 478 318 490 q 338 473 336 473 l 339 473 q 342 475 341 473 q 345 479 344 477 q 347 486 346 481 q 351 499 349 490 q 356 523 353 508 q 366 561 360 538 q 541 951 435 833 q 605 985 577 985 q 650 954 631 985 q 666 901 662 932 q 670 800 670 869 q 667 690 670 739 q 652 550 663 640 q 621 258 629 359 q 615 160 616 198 q 615 113 615 122 q 618 28 615 60 q 621 7 620 15 q 621 -3 621 0 q 621 -8 621 -7 q 614 -13 618 -13 l 613 -13 q 605 -7 608 -13 m 43 56 q 64 103 54 71 q 83 171 75 135 q 89 290 90 214 q 81 419 89 366 q 57 533 64 531 q 50 535 50 535 q 18 438 37 535 q -1 316 5 370 q -6 189 -6 262 l -6 166 q -3 89 -6 113 q 10 49 0 60 q 22 41 16 41 q 43 56 32 41 z "},"N":{"ha":608,"x_min":-27,"x_max":514,"o":"m 18 -31 q -18 39 -3 -16 q -26 119 -26 75 q -27 176 -27 163 q -22 283 -27 234 q 13 495 -10 387 q 22 539 18 519 q 25 565 25 559 q 15 614 25 577 q -5 680 5 651 q -12 706 -12 698 q -5 715 -12 715 q 20 671 7 715 q 43 631 33 631 q 48 633 46 631 q 56 648 51 636 q 66 674 61 659 q 182 897 117 810 q 313 1004 247 983 q 341 1008 329 1008 q 369 1004 353 1008 q 463 867 432 981 q 480 777 474 826 q 489 641 486 728 q 493 398 492 553 q 496 208 494 275 q 502 111 498 142 q 510 65 505 80 q 513 55 512 58 q 514 50 514 52 q 513 47 514 48 q 510 42 512 45 q 505 39 507 39 l 504 39 q 497 43 501 39 q 472 430 472 64 q 466 705 472 612 q 444 859 460 798 q 342 988 409 988 q 238 931 294 988 q 132 777 182 874 q 95 691 115 740 q 64 604 75 642 q 57 577 59 587 q 55 562 55 568 q 57 547 55 555 q 58 543 57 545 q 64 511 60 532 q 73 469 68 491 q 103 216 103 326 q 98 132 103 172 q 52 -26 83 3 q 38 -35 41 -35 q 33 -36 34 -36 q 18 -31 27 -36 m 45 -1 q 58 27 51 5 q 70 75 64 48 q 83 219 83 144 q 62 419 83 314 q 39 483 50 483 q 35 479 37 483 q 5 339 22 462 q -9 168 -9 243 q -9 139 -9 153 q 7 25 -5 58 q 32 -8 20 -8 q 45 -1 38 -8 z "},"O":{"ha":525,"x_min":-27,"x_max":437,"o":"m 127 19 q 8 159 50 51 q -27 375 -27 260 q 9 625 -27 493 q 21 664 17 650 q 27 686 25 679 q 28 698 28 694 q 27 705 28 701 q 22 715 26 708 q 11 730 17 723 q -20 814 -17 763 q -20 827 -20 821 q 33 932 -20 896 q 133 961 80 961 q 262 922 193 961 q 312 881 284 909 q 356 831 340 854 q 382 787 369 811 q 399 749 395 762 q 404 737 400 745 q 412 720 407 728 q 432 615 428 678 q 437 519 437 553 q 431 420 437 467 q 351 155 410 264 q 216 18 293 46 q 171 12 197 12 q 127 19 145 12 m 351 687 q 380 699 374 692 q 387 715 387 705 q 386 720 387 718 q 368 769 383 736 q 335 825 352 802 q 214 925 272 909 q 132 941 156 941 q 35 905 77 941 q 7 869 14 887 q 1 827 1 851 l 1 819 q 4 788 2 800 q 12 766 6 777 q 170 682 43 699 q 227 680 190 680 q 300 682 264 680 q 351 687 336 684 m 203 35 q 374 262 309 73 q 412 427 400 340 q 416 510 416 464 q 416 552 416 530 q 404 656 414 623 q 394 669 401 668 q 384 670 387 670 q 347 666 372 670 q 249 659 315 659 q 165 663 198 659 q 97 677 133 667 q 74 683 83 681 q 61 684 64 684 l 59 684 q 29 620 45 680 q -3 450 5 534 q -6 387 -6 422 q -5 351 -6 370 q 2 259 -4 295 q 106 54 31 109 q 172 31 138 31 q 203 35 187 31 z "},"P":{"ha":345,"x_min":-27,"x_max":426,"o":"m 5 -40 q -20 7 -13 -27 q -27 114 -27 41 q 15 494 -26 273 q 20 518 18 507 q 30 577 27 560 q 33 605 33 595 q 33 612 33 608 q 28 637 32 623 q 26 646 27 642 q 16 684 22 663 q 5 720 9 705 q -8 764 -8 752 q -3 771 -8 771 l -2 771 q 27 715 9 767 q 35 697 31 706 q 41 686 39 689 q 47 680 45 680 q 49 680 48 680 q 54 683 51 680 q 62 702 56 686 q 77 741 69 719 q 207 970 130 895 q 294 1019 253 1016 q 304 1019 299 1019 q 333 1015 320 1019 q 368 992 350 1008 q 426 819 426 942 l 426 810 q 420 730 426 764 q 401 657 415 696 q 140 373 330 453 l 132 369 q 106 355 114 362 q 96 332 98 349 q 94 278 94 315 q 95 261 95 271 q 55 -14 95 75 q 20 -46 39 -46 q 5 -40 13 -46 m 161 404 q 357 604 289 465 q 406 809 406 702 q 406 828 406 819 q 353 978 402 936 q 302 999 330 999 q 182 911 248 999 q 118 792 150 867 q 68 641 87 718 q 62 614 64 622 q 61 600 61 606 l 61 593 q 64 572 62 585 q 76 494 69 542 q 86 419 83 447 q 106 382 89 382 q 112 383 109 382 q 130 390 116 384 q 161 404 144 396 m 38 0 q 75 245 73 83 q 67 399 75 324 q 52 495 60 475 q 45 503 48 503 q 39 496 42 503 q 25 438 34 484 q -1 236 5 323 q -7 106 -7 148 q -3 30 -7 60 q 22 -16 3 -16 q 31 -13 28 -16 q 38 0 34 -9 z "},"Q":{"ha":513,"x_min":-27,"x_max":459,"o":"m 373 22 q 325 58 343 45 q 297 78 307 72 q 282 87 288 85 q 274 90 277 90 q 261 84 271 90 q 238 70 250 78 q 186 42 208 50 q 140 35 165 35 q 113 36 122 35 q 92 44 103 38 q -15 233 12 85 q -27 385 -27 302 q 40 846 -27 576 q 76 975 64 945 q 94 1004 87 1004 q 99 1002 97 1004 q 101 996 101 1000 q 97 976 101 989 q 94 955 94 962 l 94 951 q 107 939 94 943 q 149 933 119 936 q 254 901 208 926 q 365 788 318 861 q 427 630 411 716 q 433 534 433 593 q 427 435 433 475 q 319 153 396 264 q 303 129 310 140 q 297 115 297 119 q 303 103 297 111 q 329 81 310 96 q 385 39 348 66 q 445 -9 431 4 q 459 -26 459 -22 q 458 -28 459 -28 q 454 -31 457 -31 q 448 -30 452 -31 q 423 -15 441 -27 q 373 22 406 -2 m 196 69 q 244 109 244 94 q 233 124 244 114 q 189 161 222 135 q 160 191 161 182 q 159 195 159 193 q 163 199 159 199 q 170 197 165 199 q 214 167 182 191 q 269 136 253 136 l 270 136 q 309 176 286 137 q 392 367 370 268 q 414 537 414 465 q 409 615 414 577 q 341 786 393 710 q 217 896 290 863 q 119 915 171 915 q 90 912 99 915 q 75 893 81 909 q 60 842 69 878 q -5 389 -5 585 q 83 75 -5 141 q 110 58 98 62 q 136 55 122 55 l 146 55 q 170 59 159 56 q 196 69 181 62 z "},"R":{"ha":409,"x_min":-27,"x_max":463,"o":"m 12 -50 q -20 12 -8 -38 q -26 68 -24 32 q -27 129 -27 104 q -26 180 -27 154 q -20 271 -24 234 q 21 523 -5 384 l 35 593 l 26 647 q 16 700 22 670 q 4 752 9 730 q -6 797 -6 790 q -7 804 -7 803 q -3 812 -7 812 q 1 810 -1 812 q 13 793 7 809 q 28 740 19 778 q 42 694 37 703 q 50 685 46 685 q 54 687 52 685 q 64 710 56 690 q 81 760 72 730 q 198 989 135 927 q 238 1020 220 1011 q 277 1029 256 1029 l 280 1029 q 360 974 336 1029 q 380 868 380 937 l 380 854 q 330 654 380 747 q 153 473 264 534 q 134 461 138 467 q 130 451 130 456 q 132 441 130 446 q 150 404 136 429 q 345 131 234 252 q 403 74 372 102 q 451 33 434 45 q 463 22 462 25 l 463 18 q 455 12 463 13 l 454 12 q 362 84 435 12 q 199 283 273 173 q 168 333 184 307 q 121 414 153 359 q 88 449 100 449 q 85 448 86 449 q 82 433 82 447 l 82 427 q 87 354 82 406 q 93 255 92 307 q 94 170 94 203 q 93 107 94 138 q 87 23 92 45 q 33 -56 69 -56 q 12 -50 23 -56 m 114 480 q 134 488 124 484 q 150 495 144 492 q 216 542 181 511 q 277 608 250 572 q 346 749 330 680 q 361 861 361 818 q 351 941 361 903 q 334 977 346 960 q 310 1002 322 994 q 279 1010 294 1010 q 216 979 248 1010 q 122 817 167 930 q 95 736 109 784 q 71 646 81 689 q 60 591 60 604 q 64 553 60 580 q 72 504 67 527 q 78 476 76 480 q 82 473 81 473 q 85 472 84 472 q 93 473 88 472 q 114 480 100 475 m 52 -18 q 77 155 77 24 q 75 232 77 191 q 63 395 70 324 q 50 479 56 466 q 45 482 47 482 q 41 480 43 482 q 32 465 35 476 q 9 340 22 427 q -7 184 -3 254 q -9 125 -9 153 q -5 51 -9 85 q 16 -25 1 -7 q 30 -32 22 -32 q 34 -31 32 -32 q 52 -18 44 -29 z "},"S":{"ha":640,"x_min":-27,"x_max":532,"o":"m 210 3 q 138 40 172 11 q 116 72 116 61 q 117 76 116 74 q 120 80 117 80 q 124 79 122 80 q 146 61 130 76 q 190 31 169 39 q 241 20 212 22 l 253 20 q 295 24 275 20 q 348 43 319 29 q 438 107 397 66 q 469 143 456 125 q 492 184 481 160 q 507 229 503 210 q 511 267 511 248 q 510 284 511 275 q 507 317 509 306 q 498 340 505 328 q 424 414 473 388 q 338 442 387 434 q 189 452 289 450 q 106 456 135 454 q 63 462 78 458 q 33 473 47 466 q -26 562 -20 501 q -27 577 -27 570 q -5 673 -27 619 q 147 888 50 803 q 330 972 243 972 l 334 972 q 425 919 399 966 q 450 819 450 871 q 446 766 450 793 q 429 726 438 726 q 425 728 427 726 q 423 736 423 730 l 423 739 q 426 767 423 747 q 430 820 430 796 q 422 874 430 852 q 328 952 395 952 q 238 927 289 952 q 43 726 125 865 q -7 577 -7 636 q 31 498 -7 526 q 63 483 45 488 q 116 475 82 477 q 212 470 151 472 q 337 463 297 468 q 408 444 377 457 q 528 317 507 402 q 532 280 532 302 l 532 273 q 527 224 531 246 q 429 71 505 135 q 260 0 352 7 q 231 0 245 0 q 210 3 217 1 z "},"T":{"ha":379,"x_min":-27,"x_max":522,"o":"m 251 1 q 245 105 248 13 q 243 334 243 198 q 245 610 243 469 q 248 817 248 731 q 248 914 248 903 q 247 917 248 916 q 241 937 246 932 q 218 943 235 943 l 210 943 q 128 936 185 942 l 119 935 q 37 926 73 930 q -7 922 1 922 q -18 921 -14 921 l -21 921 q -26 926 -25 922 q -27 929 -27 928 q -18 938 -27 935 q 34 947 -5 942 q 454 977 294 976 q 496 977 481 977 q 515 975 510 977 q 521 972 520 974 q 521 967 522 969 q 519 963 521 964 q 486 960 517 962 q 408 956 454 958 q 325 952 353 954 q 284 947 296 950 q 271 939 273 944 q 268 855 269 932 q 265 666 266 778 q 263 471 264 553 q 263 342 263 388 l 263 261 q 264 169 264 208 q 265 101 264 129 q 265 54 265 73 q 264 23 265 35 q 263 6 264 12 q 261 -2 262 0 q 259 -4 260 -4 q 255 -3 257 -4 q 251 1 252 -1 z "},"U":{"ha":527,"x_min":-27,"x_max":527,"o":"m 407 -43 q 385 72 397 -14 q 379 121 381 102 q 376 163 377 141 q 373 222 374 185 q 366 298 370 291 q 362 300 364 300 q 358 299 360 300 q 345 287 353 297 q 321 256 336 277 q 128 116 214 116 q 86 124 104 116 q 52 150 69 132 q -19 322 0 202 q -26 407 -25 363 q -27 466 -27 450 q -24 555 -27 515 q -18 624 -23 580 q -7 715 -13 667 q 3 797 -1 762 q 9 837 7 831 q 16 842 12 842 q 18 842 17 842 q 24 828 23 839 l 24 825 q 22 795 24 817 q 15 731 20 767 q -4 551 -1 606 q -8 460 -8 496 q -6 403 -8 431 q 47 183 5 230 q 127 136 90 136 q 208 167 163 136 q 291 252 246 196 q 361 359 335 307 q 370 383 368 374 q 372 407 372 393 q 386 584 373 469 q 415 811 398 699 q 446 972 431 922 q 474 1028 462 1025 q 488 1031 486 1031 q 520 989 507 1031 q 526 958 524 978 q 527 890 527 939 q 523 793 527 828 q 507 698 519 758 q 411 405 476 549 q 399 378 403 388 q 394 356 395 368 q 392 321 393 345 q 391 283 391 303 q 397 158 391 228 q 418 -9 404 62 q 424 -39 423 -31 q 425 -50 425 -47 q 425 -55 425 -54 q 419 -58 423 -58 q 407 -43 412 -58 m 433 512 q 473 643 454 568 q 502 783 492 717 q 509 892 509 843 q 508 934 509 914 q 486 999 504 999 q 466 969 475 999 q 444 862 456 939 q 409 624 420 720 q 399 494 399 528 q 401 472 399 478 q 405 465 404 465 q 406 465 406 465 q 412 469 408 465 q 421 484 415 472 q 433 512 427 496 z "},"V":{"ha":402,"x_min":-27,"x_max":429,"o":"m 94 -24 q 37 66 60 -7 q 7 218 19 123 q -16 479 -5 313 q -22 599 -19 529 q -26 710 -25 669 q -27 766 -27 751 q -26 783 -27 781 q -21 787 -24 787 q -19 786 -20 787 q -11 779 -14 785 q -7 741 -9 775 q -3 656 -5 707 q 9 406 0 529 q 28 205 18 282 q 54 84 39 138 q 85 10 70 30 q 113 -7 99 -7 q 181 68 144 -7 q 322 581 235 171 q 359 750 339 658 q 395 911 379 842 q 413 991 410 980 q 418 999 415 998 q 422 1000 421 1000 q 429 997 426 1000 q 429 994 429 997 q 423 954 429 985 q 392 807 414 911 q 362 673 376 734 q 344 585 349 612 q 342 578 342 581 q 235 152 283 296 q 144 -18 187 7 q 123 -26 131 -26 q 111 -27 115 -27 q 94 -24 102 -27 z "},"W":{"ha":675,"x_min":-27,"x_max":566,"o":"m 446 -21 q 368 109 402 1 q 338 238 351 167 q 313 430 326 309 q 305 497 308 472 q 299 535 302 523 q 294 552 297 548 q 288 555 292 555 q 283 553 286 555 q 276 545 280 551 q 265 524 272 538 q 247 485 258 509 q 219 424 236 461 q 180 336 203 387 q 89 138 118 196 q 39 53 60 79 q 7 31 24 31 q -1 33 3 31 q -27 125 -27 41 q 84 792 -27 298 q 98 860 92 829 q 106 900 104 890 q 116 924 109 924 q 122 921 119 924 q 126 909 125 918 q 122 877 126 899 q 110 814 119 854 q 86 708 101 773 q -6 130 -3 304 l -6 121 q 11 60 -6 60 q 19 63 14 60 q 144 304 46 83 q 202 434 171 365 q 256 553 233 503 q 283 611 279 604 q 296 621 290 621 q 305 616 300 621 l 306 616 q 309 612 307 614 q 311 606 310 610 q 314 592 313 601 q 317 567 315 583 q 322 527 319 551 q 329 467 325 503 l 331 451 q 357 250 346 317 q 385 124 368 182 q 467 -3 422 -3 q 473 -3 470 -3 q 543 238 527 10 q 549 402 549 319 q 547 492 549 447 q 520 818 543 620 q 510 915 514 878 q 507 962 507 951 q 507 976 507 972 q 509 993 507 989 q 517 998 511 998 q 522 995 520 998 q 525 981 524 991 q 527 951 526 971 q 532 894 528 936 q 541 804 536 852 q 558 637 553 696 q 565 531 564 578 q 566 405 566 484 q 563 242 566 297 q 552 132 560 188 q 467 -25 528 -25 q 446 -21 456 -25 z "},"X":{"ha":411,"x_min":-27,"x_max":628,"o":"m 435 -20 q 366 85 410 7 q 273 259 321 162 q 265 275 269 268 q 240 327 251 305 q 222 363 230 348 q 210 387 215 378 q 202 402 205 397 q 198 410 199 408 q 195 414 196 413 q 193 416 193 416 l 192 416 q 186 418 189 418 q 178 414 182 418 q 155 387 170 408 q 105 314 136 360 q 46 225 75 269 q 7 163 18 182 q -20 128 -12 128 l -22 128 q -26 130 -24 128 q -27 136 -27 131 q 130 385 -27 157 q 160 431 147 411 q 174 456 172 451 l 174 458 q 167 484 174 465 q 138 560 159 508 q 102 653 122 601 q 66 745 81 705 q 41 811 55 776 q 18 873 28 846 q 10 892 13 884 q -6 935 0 917 q -13 955 -13 953 q -10 961 -13 961 q -5 962 -7 962 q 2 958 -2 962 q 13 937 5 955 q 37 877 21 918 q 82 760 54 835 q 129 638 110 687 q 160 561 148 590 q 179 516 172 531 q 190 497 186 502 q 197 492 194 492 q 208 499 201 492 q 230 526 214 506 q 274 584 245 546 q 503 870 372 715 q 591 972 566 945 q 622 1000 616 1000 q 628 995 628 1000 q 598 951 628 985 q 239 504 374 690 q 216 470 222 480 q 210 451 210 459 q 294 260 210 429 q 354 144 326 195 q 418 39 382 94 q 442 0 433 16 q 451 -20 451 -17 q 445 -27 449 -27 q 435 -20 441 -27 z "},"Y":{"ha":472,"x_min":-27,"x_max":499,"o":"m 358 -17 q 351 12 355 -14 q 340 92 347 37 q 336 168 337 122 q 334 310 334 214 l 334 473 l 326 474 l 325 474 q 291 452 317 474 q 234 414 265 431 q 177 393 202 398 q 152 391 164 391 q 19 482 68 391 q -27 713 -27 570 q -25 772 -27 742 q -21 831 -24 799 q -15 884 -18 863 q -11 915 -13 904 q -8 930 -9 926 q -3 935 -6 935 l -1 935 q 7 925 5 935 q 8 915 8 921 q 5 880 8 902 q -7 715 -7 789 q 16 545 -7 614 q 150 412 60 412 q 223 431 183 412 q 287 475 254 447 q 337 532 319 504 q 355 635 343 540 q 465 994 403 994 q 475 992 470 994 q 484 985 479 990 q 491 975 488 981 q 499 936 498 959 q 499 909 499 913 q 494 839 499 873 q 385 559 468 695 q 372 535 378 547 q 365 516 366 523 q 353 319 353 452 l 353 292 q 370 21 355 138 q 372 -1 372 7 q 373 -13 373 -9 q 372 -17 373 -16 q 366 -21 370 -21 q 358 -17 362 -21 m 403 632 q 429 689 414 651 q 455 759 445 726 q 476 856 472 819 q 481 912 481 893 q 477 947 481 932 q 465 964 473 964 q 453 958 459 964 q 415 857 436 941 q 380 667 395 773 q 377 628 377 640 q 378 617 377 619 q 385 612 380 612 q 403 632 391 612 z "},"Z":{"ha":497,"x_min":-27,"x_max":565,"o":"m -8 23 q -27 56 -27 30 q 33 127 -27 96 q 74 143 54 139 q 136 149 94 147 l 191 151 l 209 172 q 367 405 273 246 q 511 685 460 564 q 538 760 530 732 q 545 816 545 789 l 545 825 q 544 844 545 837 q 536 866 542 854 q 397 934 503 934 q 294 922 353 934 q 247 909 278 918 q 184 890 216 901 q 131 873 153 880 q 105 866 108 866 q 99 871 99 868 l 99 873 q 110 884 101 878 q 136 894 115 886 q 184 911 157 902 q 398 954 311 954 q 486 939 448 954 q 524 914 505 932 q 553 877 543 897 q 564 837 564 855 q 565 814 565 819 q 559 760 565 787 q 445 502 532 665 q 267 213 359 340 q 239 175 248 189 q 230 157 231 161 q 229 151 229 153 q 232 144 229 147 q 285 126 239 139 q 390 98 331 113 q 494 73 449 83 q 529 65 515 69 q 546 60 544 62 q 549 54 549 58 q 548 51 549 53 q 534 47 544 47 q 496 53 526 47 q 428 67 465 59 q 361 84 391 76 q 213 121 228 121 l 211 121 q 193 115 203 121 q 163 91 183 109 q 75 32 120 50 q 37 21 52 22 q 16 19 22 19 q -8 23 2 19 m 81 58 q 132 91 112 73 q 152 118 152 109 l 152 120 q 136 126 148 125 q 118 127 125 127 q 96 125 107 127 q 61 119 76 123 q 14 91 33 108 q -5 60 -5 74 q 8 40 -5 41 q 22 40 20 40 q 81 58 45 40 z "},"[":{"ha":397,"x_min":68,"x_max":330,"o":"m 106 -172 q 96 -125 99 -168 q 92 9 93 -82 q 92 216 92 101 l 92 479 q 90 777 92 669 q 79 1006 87 920 q 75 1057 77 1032 q 71 1093 72 1082 q 68 1109 68 1105 q 68 1116 68 1114 l 68 1119 q 72 1124 69 1122 q 83 1128 75 1126 q 99 1131 90 1130 q 110 1132 102 1131 q 188 1141 140 1135 q 249 1148 231 1147 q 275 1150 267 1150 q 283 1149 280 1150 q 290 1143 290 1148 q 289 1138 290 1141 q 285 1135 288 1136 q 256 1130 281 1134 q 194 1122 231 1126 q 132 1113 158 1117 q 103 1107 106 1109 q 98 1103 100 1106 q 94 1099 95 1101 l 94 1077 q 97 1034 95 1059 q 105 912 102 979 q 109 726 108 844 q 110 401 110 608 q 111 88 110 226 q 113 -77 112 -50 q 120 -131 116 -117 q 134 -147 124 -146 q 164 -143 137 -147 q 229 -132 191 -139 q 291 -120 266 -124 q 321 -117 315 -117 l 323 -117 q 328 -119 326 -117 q 330 -123 330 -121 q 327 -129 330 -126 q 314 -134 323 -132 q 285 -141 304 -137 q 233 -151 265 -145 q 169 -164 197 -158 q 133 -173 140 -170 q 120 -177 124 -176 q 115 -178 117 -178 q 111 -177 113 -178 q 106 -172 109 -176 z "},"\\":{"ha":785,"x_min":68,"x_max":717,"o":"m 717 -41 q 716 -46 717 -43 q 714 -49 715 -48 l 713 -49 q 710 -49 712 -49 q 705 -47 708 -49 q 676 -4 702 -44 q 616 94 651 36 q 532 231 579 154 q 448 366 484 307 q 351 524 412 422 q 225 734 290 625 q 117 920 161 842 q 68 1006 72 998 q 68 1011 68 1009 q 71 1019 68 1016 q 76 1022 73 1022 q 81 1020 78 1022 q 89 1007 83 1019 q 102 981 95 996 q 172 861 111 963 q 301 644 232 760 q 408 469 370 528 q 624 119 534 266 q 717 -41 713 -28 z "},"]":{"ha":374,"x_min":68,"x_max":306,"o":"m 70 -174 q 68 -169 68 -172 q 79 -159 68 -163 q 113 -154 85 -157 q 180 -148 142 -151 q 244 -142 217 -145 q 274 -139 271 -140 q 279 -135 277 -138 q 283 -130 282 -133 q 287 -51 287 -121 q 283 149 287 19 q 280 309 282 207 q 277 511 278 411 q 267 935 273 770 q 255 1114 260 1099 q 247 1123 252 1120 q 234 1125 241 1125 q 225 1124 230 1125 q 182 1120 210 1124 q 131 1113 146 1115 q 111 1112 117 1112 q 103 1112 106 1112 q 96 1117 97 1114 q 98 1122 96 1120 q 102 1126 99 1125 q 131 1133 106 1128 q 184 1141 155 1137 q 237 1147 214 1145 q 256 1148 250 1148 q 265 1146 262 1148 q 271 1141 268 1145 q 294 594 286 1124 q 298 388 296 495 q 301 217 300 281 q 304 80 303 153 q 306 -41 306 7 q 306 -101 306 -78 q 306 -135 306 -123 q 304 -151 305 -146 q 300 -157 302 -155 q 207 -167 292 -161 q 159 -170 182 -169 q 96 -175 111 -174 q 84 -176 90 -176 l 79 -176 q 70 -174 71 -176 z "},"_":{"ha":507,"x_min":68,"x_max":439,"o":"m 132 145 q 101 144 111 144 q 87 144 92 144 l 79 144 q 71 145 73 144 q 68 149 68 146 q 68 151 68 151 q 81 160 68 157 q 141 166 96 163 q 239 171 199 170 q 339 174 278 173 q 404 175 377 175 q 434 174 431 176 q 439 170 439 172 l 439 167 q 435 160 439 163 q 391 156 431 159 q 247 150 318 152 q 132 145 189 148 z "},"a":{"ha":530,"x_min":-34,"x_max":557,"o":"m 271 119 q 189 242 208 145 q 178 284 182 283 q 173 286 174 286 q 149 255 166 286 q 83 184 111 195 q 43 173 56 173 q -3 194 18 173 q -34 293 -34 228 q -33 325 -34 308 q 20 459 -22 407 q 119 513 62 511 l 121 513 q 183 490 156 513 q 204 479 195 479 q 222 508 218 479 q 235 534 228 534 q 239 532 237 534 q 243 519 243 530 q 242 509 243 515 q 229 448 240 490 q 209 359 213 388 q 205 307 205 331 q 205 286 205 296 q 292 137 214 150 l 295 137 q 357 168 325 137 q 418 244 389 200 q 467 323 448 289 q 482 350 476 340 q 532 425 517 406 q 551 444 546 444 q 553 443 552 444 q 557 437 557 442 q 555 430 557 435 q 531 389 551 418 q 504 347 519 370 q 479 307 490 324 q 467 287 473 298 q 416 207 447 251 q 354 139 386 163 q 296 115 323 115 q 271 119 283 115 m 73 203 q 107 233 89 212 q 138 277 126 254 q 154 314 144 290 q 173 365 163 339 q 188 408 183 394 q 193 428 193 422 q 191 441 193 435 q 159 480 182 467 q 115 493 137 493 q 106 492 111 493 q 22 426 56 481 q -13 297 -12 370 l -13 290 q 11 209 -13 231 q 42 194 24 194 q 73 203 56 194 z "},"b":{"ha":460,"x_min":10,"x_max":487,"o":"m 56 52 q 33 85 41 66 q 22 134 26 103 q 19 162 22 146 q 15 191 17 178 q 11 256 12 204 q 10 426 10 309 q 13 653 10 587 q 24 723 16 718 q 30 727 28 726 q 35 723 32 727 q 38 716 38 720 q 39 710 39 713 q 37 692 39 703 q 32 601 35 667 q 28 483 29 534 q 27 407 27 432 q 28 368 27 382 q 31 324 29 339 q 34 304 32 309 q 39 298 36 298 q 45 301 42 298 q 52 315 47 304 q 63 345 56 326 q 187 534 117 489 q 234 549 212 549 q 275 532 257 549 q 324 415 311 501 q 331 384 327 391 q 345 376 336 376 q 393 392 361 376 q 457 433 425 408 q 482 446 475 446 q 487 440 487 446 q 452 404 487 429 q 372 362 416 380 q 334 340 341 349 q 323 300 328 331 q 214 57 298 132 q 153 24 176 27 q 124 22 129 22 q 56 52 87 22 m 108 293 q 239 343 154 322 q 274 353 259 349 q 292 359 289 358 q 306 392 306 366 q 301 430 306 408 q 233 528 282 528 q 212 524 223 528 q 175 497 195 517 q 138 454 154 477 q 101 386 119 425 q 77 323 84 348 q 69 288 69 298 q 71 279 69 282 q 75 278 73 278 l 77 278 q 87 281 80 278 q 108 293 94 285 m 205 76 q 260 151 236 103 q 284 215 273 179 q 300 274 296 250 q 304 310 304 298 q 302 321 304 317 q 294 332 300 331 q 287 332 289 332 q 260 329 278 332 q 50 180 73 288 q 44 136 44 157 q 68 68 44 95 q 123 41 94 41 q 136 43 130 41 q 205 76 174 50 z "},"c":{"ha":417,"x_min":-27,"x_max":444,"o":"m 73 126 q -7 196 12 148 q -27 290 -27 244 q -20 355 -27 320 q 27 479 -5 424 q 99 555 60 534 q 135 564 118 564 q 181 547 159 564 q 223 456 217 517 q 224 437 224 443 q 223 429 224 431 q 218 428 221 428 q 211 430 214 428 q 207 439 209 432 q 203 462 205 447 q 148 541 192 525 q 134 543 141 543 q 68 503 102 543 q 4 372 28 455 q -4 319 -3 345 q -6 283 -6 294 q -3 244 -6 260 q 105 139 21 154 q 117 138 111 138 q 233 184 170 138 q 394 387 313 241 q 414 421 405 407 q 425 439 423 436 q 437 445 431 445 q 444 440 444 446 q 433 416 444 437 q 407 369 422 395 q 379 321 392 342 q 164 125 277 162 q 123 120 146 120 l 118 120 q 73 126 92 120 z "},"d":{"ha":610,"x_min":-37,"x_max":639,"o":"m 285 130 q 217 247 239 154 q 205 283 210 283 l 201 283 q 176 249 193 283 q 144 205 163 227 q 60 159 99 159 q 34 164 46 159 q -26 230 -16 184 q -37 297 -37 275 q -10 408 -37 349 q 78 507 27 480 q 119 517 99 517 q 188 487 155 517 q 209 473 201 473 q 216 479 214 473 q 222 498 218 483 q 231 535 227 514 q 317 764 264 671 q 416 856 370 856 q 446 844 432 856 q 467 812 460 831 q 473 776 473 794 q 473 753 473 758 q 469 702 473 725 q 386 504 445 598 q 263 372 327 409 q 245 362 253 367 q 235 355 237 357 q 232 343 232 352 q 232 326 232 335 l 232 304 q 307 144 239 170 q 323 142 315 142 q 361 151 340 142 q 419 196 391 165 q 448 231 427 205 q 491 288 468 257 q 576 395 539 351 q 621 445 612 439 q 630 448 625 448 q 633 447 631 448 q 639 441 639 446 q 632 431 639 440 q 614 410 625 422 q 564 349 589 381 q 500 266 538 317 q 435 185 463 215 q 377 137 408 153 q 323 121 346 121 q 285 130 304 121 m 283 410 q 336 467 307 429 q 390 549 366 505 q 445 687 435 634 q 454 762 454 739 q 439 823 454 801 q 416 833 429 833 q 388 822 404 833 q 302 688 343 783 q 242 484 261 592 q 236 439 238 456 q 233 417 233 422 q 233 410 233 412 q 233 402 233 405 q 238 395 235 398 q 248 391 242 391 q 254 392 251 391 q 283 410 264 395 m 127 216 q 175 297 153 245 q 201 395 197 349 q 203 409 203 404 q 201 419 203 415 q 192 442 200 427 q 181 460 187 452 q 172 474 176 469 q 146 491 161 484 q 119 498 132 498 q 61 471 92 498 q 8 399 31 444 q -17 298 -17 345 q -14 266 -17 282 q 24 193 -1 205 q 62 180 50 180 q 127 216 92 180 z "},"e":{"ha":367,"x_min":-27,"x_max":394,"o":"m 64 142 q -25 263 -11 162 q -27 294 -27 277 q -16 374 -27 330 q 58 527 10 470 q 120 578 101 577 q 140 578 138 578 q 189 547 174 578 q 195 513 195 532 q 184 458 195 489 q 137 386 169 422 q 73 332 104 350 q 51 323 63 327 q 28 317 38 319 q -3 303 1 314 q -7 283 -7 293 q -2 247 -7 269 q 97 158 20 158 l 106 158 q 231 224 168 162 q 330 354 282 272 q 346 382 337 366 q 363 410 355 397 q 375 431 372 426 q 389 444 383 444 q 394 435 393 444 q 380 403 394 429 q 347 343 367 376 q 311 285 328 311 q 258 222 290 256 q 201 173 225 189 q 96 138 146 138 q 64 142 79 138 m 50 343 q 116 393 83 358 q 165 466 149 428 q 175 511 175 492 q 172 533 175 524 q 138 557 163 557 l 136 557 q 74 515 109 556 q 12 396 37 471 q 3 355 3 370 q 7 342 3 347 q 22 338 12 338 l 26 338 q 50 343 38 338 z "},"f":{"ha":393,"x_min":1,"x_max":420,"o":"m 22 96 q 1 262 1 178 l 1 289 q 9 441 1 374 q 64 704 28 578 q 84 768 77 753 q 95 782 91 782 q 99 780 97 782 l 100 779 q 101 777 100 779 q 101 773 102 776 q 100 763 101 770 q 95 744 98 756 q 87 714 92 732 q 75 670 83 696 q 73 663 75 666 q 43 524 58 602 q 27 406 29 446 l 27 400 q 33 380 27 387 q 60 368 39 372 q 130 362 92 362 q 161 363 145 362 q 271 381 219 366 q 335 406 299 389 q 391 435 370 422 q 414 446 407 446 q 420 439 420 446 l 420 438 q 390 412 420 431 q 193 345 307 360 q 163 341 176 343 q 147 338 150 338 q 141 331 141 336 q 163 304 141 322 q 239 172 224 250 q 242 131 242 151 q 228 55 242 90 q 178 -15 206 2 q 131 -31 150 -31 q 90 -18 111 -31 q 22 96 50 6 m 220 168 q 199 226 214 197 q 81 328 165 294 q 37 340 52 340 q 24 333 27 340 q 22 314 22 329 q 21 279 21 300 q 25 189 21 233 q 42 101 29 145 q 92 6 67 22 q 134 -10 117 -10 q 164 0 149 -10 q 209 59 195 20 q 222 132 222 97 q 220 168 222 150 z "},"g":{"ha":540,"x_min":-68,"x_max":567,"o":"m 18 -390 q -44 -337 -20 -379 q -68 -235 -68 -294 q -56 -149 -68 -195 q -25 -62 -45 -102 q 109 100 22 28 q 145 127 121 110 q 196 161 170 144 q 240 191 221 178 q 261 207 258 204 q 264 228 264 213 q 251 325 264 258 q 240 373 245 356 q 232 397 235 390 q 223 404 228 404 l 222 404 q 215 401 218 404 q 207 385 212 397 q 193 347 201 372 q 131 220 165 271 q 45 136 73 138 q 15 135 18 135 q -52 186 -31 135 q -62 241 -62 210 q -46 331 -62 281 q 58 499 -8 438 q 138 537 95 537 q 183 524 165 537 q 224 471 201 510 q 274 314 255 421 q 283 265 279 281 q 290 242 287 248 q 297 236 293 237 q 302 235 299 235 q 307 236 304 235 q 323 245 312 238 q 353 267 334 252 q 428 327 392 295 q 511 405 464 358 q 547 437 535 429 q 563 446 558 446 q 566 444 566 446 q 567 441 567 443 q 559 425 567 435 q 527 391 551 414 q 359 246 450 316 q 320 217 336 230 q 300 201 303 203 q 297 190 298 199 q 296 161 296 181 q 295 105 295 141 q 293 27 295 56 q 288 -21 292 -1 q 154 -326 254 -221 q 36 -392 89 -392 q 18 -390 27 -392 m 113 230 q 186 389 151 286 q 198 430 195 418 q 201 452 201 443 l 201 456 q 182 496 198 479 q 144 517 166 513 l 139 517 q 68 481 106 517 q -5 378 28 444 q -28 321 -19 347 q -41 241 -41 275 q -35 197 -41 216 q 18 155 -19 155 l 24 155 q 113 230 65 159 m 81 -359 q 150 -299 115 -340 q 210 -208 185 -258 q 275 98 275 -76 q 274 146 275 130 q 269 167 273 162 q 258 172 265 172 l 256 172 q 229 158 250 170 q 180 127 207 145 q 134 94 154 110 q -47 -235 -46 -50 q -17 -343 -45 -316 q 37 -370 12 -370 q 81 -359 58 -370 z "},"h":{"ha":532,"x_min":14,"x_max":559,"o":"m 37 128 q 15 246 22 134 q 14 346 14 273 q 14 471 14 418 l 14 582 q 16 784 14 698 q 19 877 18 870 q 24 881 22 881 q 28 878 26 881 q 35 857 33 872 q 36 814 36 849 l 36 772 q 34 599 35 699 q 32 454 32 492 q 31 401 31 416 q 32 352 31 370 q 35 311 33 326 q 41 298 37 298 q 67 355 50 298 q 180 533 113 497 q 202 539 193 539 q 223 534 212 540 q 251 498 242 527 q 266 400 260 469 q 285 272 272 315 q 322 214 298 230 q 351 204 336 204 q 378 212 363 204 q 427 256 401 222 q 505 376 453 290 q 528 414 519 400 q 542 435 536 429 q 549 443 547 442 q 553 444 551 444 q 556 444 555 444 q 559 439 559 442 l 559 437 q 553 420 559 433 q 533 385 547 408 q 429 227 466 269 q 351 183 389 183 q 335 185 342 183 q 250 353 263 205 q 245 401 248 373 q 242 431 243 417 q 218 512 237 499 q 202 518 210 518 l 201 518 q 179 509 192 518 q 98 382 133 475 q 56 184 63 290 q 54 154 55 168 q 52 137 53 141 q 48 129 51 131 q 42 127 45 127 q 37 128 40 127 z "},"i":{"ha":337,"x_min":7,"x_max":364,"o":"m 11 307 q 7 389 7 348 q 8 435 7 412 q 9 459 9 447 q 11 491 9 480 q 14 506 12 502 q 19 509 16 509 q 25 506 23 509 q 28 492 28 502 q 29 471 29 483 l 29 457 q 28 422 29 441 q 28 385 28 404 q 31 309 28 348 q 74 204 43 214 q 116 194 105 194 q 219 251 161 194 q 318 386 270 300 q 348 434 339 422 q 360 445 356 445 q 363 444 361 445 q 364 439 364 442 q 335 374 364 424 q 233 237 287 290 q 114 174 168 174 q 89 177 101 174 q 11 307 26 196 m 10 630 q 7 640 7 635 q 8 646 7 642 q 20 654 12 654 q 31 649 29 654 q 33 643 33 644 q 27 631 33 636 q 19 624 20 624 q 17 624 18 624 q 10 630 14 624 z "},"j":{"ha":265,"x_min":-231,"x_max":292,"o":"m -161 -290 q -231 -123 -231 -256 l -231 -121 q -123 142 -231 37 q -77 183 -99 165 q -13 227 -54 200 q 23 251 12 241 q 34 269 33 261 q 35 282 35 277 q 33 313 35 294 q 20 400 28 357 q 5 466 13 442 q -1 493 -1 484 q 5 501 -1 501 q 9 500 7 501 q 50 340 31 488 q 61 284 55 288 q 71 281 67 281 q 115 302 83 281 q 184 350 155 326 q 252 414 214 374 q 271 433 264 427 q 288 443 282 443 q 291 441 290 443 q 292 437 292 439 q 286 421 292 431 q 243 376 275 408 q 185 325 212 345 q 117 280 159 304 q 85 260 99 269 q 68 246 71 250 q 63 237 64 243 q 61 219 62 231 q 61 180 61 206 q -43 -250 60 -134 q -125 -296 -83 -294 l -132 -296 q -145 -295 -139 -296 q -161 -290 -153 -294 m -20 630 q -23 640 -23 635 q -22 646 -23 643 q -10 654 -19 654 q 1 649 -1 654 q 2 643 2 644 q -3 631 2 636 q -11 624 -9 624 q -13 624 -12 624 q -20 630 -16 624 m -93 -265 q -3 -138 -37 -232 q 39 127 35 -35 q 39 173 39 155 l 39 189 q 35 215 39 209 q 24 220 32 220 q -7 205 18 220 q -62 169 -33 191 q -212 -121 -212 56 q -211 -140 -212 -130 q -184 -243 -208 -208 q -130 -275 -161 -275 q -93 -265 -113 -275 z "},"k":{"ha":437,"x_min":7,"x_max":464,"o":"m 35 -121 q 7 323 16 -85 q 7 406 7 356 l 7 459 q 10 638 8 546 q 14 795 12 730 q 18 867 16 861 q 24 873 20 873 q 31 865 27 873 q 33 843 33 863 l 33 832 q 31 732 33 802 q 28 606 30 677 q 26 481 27 535 q 27 406 26 435 q 28 363 27 378 q 32 346 30 349 q 37 342 34 342 q 39 342 37 342 q 47 353 41 343 q 61 378 54 363 q 98 439 81 416 q 134 481 115 463 q 169 506 153 498 q 196 513 186 513 q 211 509 204 513 q 225 474 225 503 l 225 469 q 192 388 222 428 q 117 324 162 349 q 87 304 90 311 q 84 293 84 297 q 93 267 84 283 q 176 218 119 218 l 184 218 q 314 294 239 222 q 400 389 360 339 q 422 415 411 402 q 446 441 439 436 q 457 446 453 446 q 462 444 460 446 q 464 440 464 442 q 463 437 464 439 q 456 425 462 433 q 437 402 450 417 q 410 370 423 386 q 328 279 372 323 q 223 205 269 222 q 176 198 202 198 l 172 198 q 126 205 144 198 q 73 258 94 222 q 54 278 62 278 q 45 268 49 278 q 40 251 43 263 q 36 222 38 238 q 33 186 33 203 q 33 160 33 169 q 34 90 33 134 q 39 5 36 48 q 43 -62 41 -38 q 46 -99 45 -85 q 47 -118 47 -113 l 47 -121 q 42 -126 45 -126 q 35 -121 39 -126 m 113 344 q 176 401 146 362 q 205 467 205 439 l 205 470 q 187 490 205 490 q 145 464 172 490 q 97 401 119 437 q 74 347 74 361 q 77 340 74 342 q 86 335 81 335 l 89 335 q 113 344 96 336 z "},"l":{"ha":326,"x_min":7,"x_max":346,"o":"m 111 58 q 7 376 7 83 q 22 640 7 488 q 42 814 32 740 q 58 897 53 889 q 63 901 61 901 l 64 901 q 68 899 66 901 q 70 886 70 897 l 70 880 q 62 817 68 862 q 26 370 26 543 q 64 125 26 193 q 96 88 78 98 q 129 77 115 77 q 141 79 135 77 q 223 161 183 90 q 309 376 263 233 q 324 422 318 407 q 333 440 330 437 q 338 444 336 444 q 342 444 340 444 q 345 441 344 442 q 346 436 346 439 l 346 433 q 341 416 345 427 q 332 385 338 404 q 315 334 326 365 q 161 66 239 98 q 124 56 142 56 q 111 58 117 56 z "},"m":{"ha":598,"x_min":8,"x_max":625,"o":"m 39 107 q 30 130 34 113 q 21 186 26 147 q 11 289 13 250 q 8 383 8 328 q 9 441 8 422 q 13 466 10 460 q 20 472 16 472 l 22 472 q 25 469 24 472 q 27 457 26 466 q 28 430 28 448 q 28 382 28 412 q 36 229 29 288 q 53 170 43 170 l 54 170 q 60 179 58 172 q 67 203 63 186 q 76 251 71 220 q 151 519 106 417 q 240 622 197 622 q 261 611 250 622 q 278 583 271 600 q 284 566 282 574 q 286 541 286 557 q 286 492 286 525 q 280 359 286 427 q 276 310 277 323 q 275 290 275 296 q 276 276 275 281 q 283 268 278 269 l 284 268 q 290 269 287 268 q 298 275 294 271 q 331 292 316 292 q 349 285 340 292 q 360 272 353 282 q 374 249 367 262 q 400 209 389 222 q 422 197 412 197 l 424 197 q 446 207 435 197 q 501 276 473 235 q 553 357 529 317 q 581 399 568 380 q 603 432 595 421 q 614 445 612 444 q 618 446 617 446 q 624 444 622 446 q 625 439 625 442 q 625 435 625 437 q 616 419 623 430 q 597 389 610 408 q 574 352 587 371 q 462 195 522 264 q 435 176 446 178 q 422 174 425 174 q 388 192 406 174 q 373 211 381 199 q 360 232 365 222 q 350 250 355 241 q 342 261 345 258 q 331 267 337 267 q 280 208 310 267 q 263 178 268 183 q 255 174 258 174 q 249 177 252 174 q 247 188 247 179 q 247 199 247 196 q 250 244 247 214 q 258 351 252 281 q 267 500 267 445 q 266 541 267 524 q 235 597 260 597 q 183 538 214 597 q 127 393 152 479 q 109 317 117 355 q 92 223 101 279 q 77 143 83 170 q 66 109 71 117 q 54 100 61 100 q 46 102 50 100 q 39 107 42 104 z "},"n":{"ha":604,"x_min":7,"x_max":631,"o":"m 38 124 q 34 132 36 127 q 31 146 33 136 q 27 174 29 155 q 21 223 24 193 q 12 333 16 271 q 7 426 8 396 q 7 464 7 456 q 9 503 7 497 q 18 510 13 510 q 24 502 22 509 q 26 473 25 498 q 28 414 27 448 q 46 228 33 247 q 50 224 49 224 l 52 224 q 56 227 54 224 q 64 243 58 229 q 75 275 70 256 q 199 511 134 448 q 250 538 229 538 q 262 535 256 538 q 297 477 288 524 q 307 382 302 450 q 310 332 308 356 q 314 298 312 308 q 386 180 334 180 q 428 194 408 180 q 477 245 448 207 q 556 355 507 283 q 583 395 568 373 q 608 427 599 416 q 628 444 621 444 l 629 444 q 631 441 631 444 q 623 420 631 435 q 602 388 616 410 q 574 347 587 366 q 482 219 515 259 q 425 168 448 178 q 409 163 418 165 q 391 160 400 161 l 387 160 q 310 229 336 160 q 296 279 301 252 q 289 349 292 306 q 277 472 283 437 q 260 513 270 511 q 248 515 250 515 q 209 492 232 515 q 132 367 170 450 q 75 191 94 283 q 64 147 68 162 q 57 127 60 132 q 49 121 54 121 q 43 122 46 121 q 38 124 39 123 z "},"o":{"ha":467,"x_min":-3,"x_max":494,"o":"m 22 185 q -3 317 -3 238 q 12 454 -3 378 q 20 489 16 473 q 28 513 25 506 q 51 548 39 532 q 70 568 62 564 q 92 574 79 574 q 115 569 105 574 q 158 522 136 557 q 194 444 180 487 q 202 422 197 433 q 210 408 206 412 q 217 402 213 404 q 227 399 220 400 q 244 397 233 398 q 267 397 256 397 q 366 408 319 397 q 473 442 423 420 q 488 446 482 446 q 494 443 492 446 l 494 441 q 481 427 494 435 q 366 387 436 401 q 245 372 296 372 l 241 372 q 216 365 220 372 q 213 347 213 359 q 214 336 213 342 q 214 323 214 331 q 214 309 214 317 q 208 238 213 263 q 190 185 203 213 q 107 117 156 117 l 106 117 q 22 185 56 117 m 172 422 q 174 431 174 425 q 172 444 174 436 q 153 490 167 463 q 128 530 140 517 q 102 551 111 550 q 92 552 93 552 q 71 537 78 552 q 67 511 67 524 q 131 427 67 463 q 157 416 152 416 q 163 416 161 416 q 172 422 170 416 m 168 187 q 195 309 195 242 q 194 338 195 323 q 183 375 192 364 q 148 396 174 387 q 104 418 120 407 q 70 448 87 429 q 45 467 53 467 q 41 465 42 467 q 25 414 33 459 q 18 320 18 373 l 18 304 q 39 195 20 240 q 85 139 66 142 q 107 136 104 136 q 168 187 140 136 z "},"p":{"ha":478,"x_min":0,"x_max":505,"o":"m 52 -294 q 28 -96 41 -253 q 9 242 16 62 q 5 337 7 287 q 1 419 3 387 q 0 462 0 450 q 0 480 0 475 l 0 490 q 3 498 1 497 q 7 501 5 501 q 20 471 16 501 q 34 439 24 439 q 43 448 35 439 q 61 470 51 457 q 134 532 104 523 q 179 542 165 542 q 231 522 208 542 q 283 405 264 495 q 289 396 285 397 q 296 395 294 395 q 319 398 304 395 q 377 416 339 403 q 459 440 437 435 q 490 446 481 446 q 496 445 494 446 q 504 440 503 443 q 505 435 505 437 q 502 431 505 433 q 492 428 500 430 q 471 423 483 425 q 419 409 455 420 q 350 386 384 397 q 306 370 317 374 q 290 353 294 364 q 281 315 285 342 q 186 119 262 164 q 160 109 170 110 q 145 108 149 108 q 124 113 134 108 q 99 149 100 127 q 98 173 98 171 q 119 256 98 212 q 224 359 149 320 q 248 372 238 366 q 258 381 257 378 q 260 397 260 388 q 255 434 260 412 q 231 492 247 469 q 177 521 212 521 q 120 499 151 521 q 67 445 90 478 q 55 422 62 437 q 42 393 48 408 l 28 359 l 29 279 q 40 20 31 169 q 62 -235 50 -129 q 67 -276 66 -260 q 68 -296 68 -291 l 68 -300 q 62 -305 66 -305 q 60 -304 62 -305 q 52 -294 55 -303 m 174 136 q 191 147 182 140 q 205 160 200 154 q 241 226 227 185 q 259 309 256 267 q 260 330 260 323 q 259 338 260 336 q 254 341 257 340 q 245 343 250 343 q 236 341 241 343 q 208 326 226 338 q 119 176 122 267 q 136 132 119 138 q 151 127 144 127 l 153 127 q 174 136 160 129 z "},"q":{"ha":537,"x_min":-27,"x_max":561,"o":"m 264 -353 q 196 -280 226 -341 q 149 -64 155 -200 q 147 -31 148 -42 q 144 -14 146 -19 q 138 -5 142 -9 q 131 9 131 4 q 130 16 130 14 q 136 26 130 23 q 153 75 149 31 q 157 112 154 88 q 162 161 159 136 q 168 224 168 205 q 163 243 168 241 q 155 236 161 243 q 140 219 149 229 q 85 167 111 176 q 51 158 60 158 q -5 200 20 158 q -24 258 -22 230 q -27 298 -27 286 q -21 355 -27 327 q 10 446 -11 402 q 66 525 32 490 q 138 559 100 559 l 141 559 q 214 493 180 557 q 224 435 224 472 l 224 431 q 209 318 223 391 q 181 150 189 215 q 173 60 173 84 q 175 42 173 47 q 191 35 180 35 q 235 50 207 35 q 342 132 283 75 q 432 234 395 182 q 506 359 470 286 q 509 366 507 362 q 526 399 517 382 q 540 425 535 416 q 558 445 552 445 l 559 445 q 561 439 561 444 q 556 418 561 433 q 551 407 555 414 q 544 390 547 399 q 537 377 540 382 q 248 33 435 153 q 230 14 230 22 l 230 13 q 256 -8 232 5 q 359 -106 334 -48 q 380 -203 380 -153 q 376 -250 380 -227 q 336 -333 362 -309 q 285 -356 311 -356 q 264 -353 275 -356 m 123 230 q 173 357 153 277 q 185 406 179 382 q 195 441 191 429 q 199 458 198 453 q 200 467 200 463 l 200 470 q 196 481 199 475 q 158 537 174 536 q 141 538 142 538 q 80 509 110 538 q 31 440 50 478 q -7 297 -7 361 q 10 216 -7 253 q 54 179 30 179 q 68 182 61 179 q 123 230 100 194 m 297 -334 q 322 -316 309 -330 q 344 -285 336 -302 q 361 -203 361 -245 q 358 -170 361 -186 q 311 -71 349 -111 q 241 -23 274 -37 q 193 -10 208 -10 q 174 -16 180 -10 q 170 -52 170 -25 q 170 -77 170 -63 q 182 -176 172 -126 q 282 -337 214 -319 l 283 -337 q 288 -336 285 -337 q 297 -334 292 -336 z "},"r":{"ha":417,"x_min":-54,"x_max":441,"o":"m 127 234 q 146 355 132 293 q 153 399 153 384 q 151 412 153 408 q 134 418 147 418 q 109 414 125 418 q 33 406 62 406 q 6 408 17 406 q -23 425 -9 412 q -45 454 -38 438 q -54 503 -54 475 q -54 517 -54 510 q -35 579 -50 554 q 7 606 -16 606 q 43 580 31 606 q 47 546 47 568 l 47 540 q 42 487 47 513 q 38 464 39 475 q 36 446 36 452 l 36 443 q 40 431 36 434 q 54 427 43 427 l 60 427 q 106 435 75 429 q 142 441 127 439 q 163 443 158 443 l 166 443 q 178 438 176 442 q 180 428 180 435 q 180 418 180 424 q 171 372 178 403 q 155 292 160 323 q 147 233 151 260 q 144 176 144 202 q 157 94 144 125 q 195 60 170 60 q 214 64 204 60 q 308 179 254 81 q 389 357 341 241 q 424 437 420 429 q 435 447 430 447 q 441 439 441 447 l 441 437 q 417 372 439 425 q 369 259 395 319 q 328 171 342 200 q 240 57 274 75 q 191 39 206 39 q 146 68 165 39 q 125 182 125 104 q 127 234 125 205 m 8 449 q 20 481 15 458 q 27 520 26 503 q 29 545 29 537 q 28 562 29 555 q 23 572 26 567 q 16 579 19 576 q 7 584 9 584 q 5 584 5 584 q -4 581 2 584 q -33 515 -29 566 l -33 503 q -18 448 -33 464 q -4 441 -11 441 q 8 449 2 441 z "},"s":{"ha":414,"x_min":7,"x_max":441,"o":"m 85 134 q 109 196 92 166 q 147 248 127 226 q 165 271 158 260 q 173 283 173 281 q 159 301 173 292 q 105 330 146 311 q 41 367 62 351 q 13 398 20 382 q 7 430 7 414 q 22 486 7 456 q 100 562 47 533 q 123 571 114 568 q 144 573 132 573 q 202 511 202 573 q 200 485 202 499 q 191 449 195 458 q 182 439 187 439 l 181 439 q 176 446 176 440 q 176 453 176 452 q 180 487 176 463 q 182 510 182 500 q 143 553 182 553 l 142 553 q 104 540 125 552 q 65 509 83 528 q 28 432 28 466 q 54 381 28 403 q 87 362 64 374 q 137 337 111 350 q 182 317 163 325 q 206 309 202 309 q 218 315 210 310 q 235 328 227 320 q 309 378 266 351 q 387 425 352 406 q 432 445 422 445 q 441 439 441 444 q 428 426 441 435 q 426 425 427 426 q 399 409 418 420 q 357 385 380 397 q 272 328 308 355 q 229 292 235 302 q 228 286 228 289 l 228 284 q 231 273 228 280 q 241 252 234 265 q 254 222 251 233 q 258 193 257 211 l 258 181 q 241 104 258 138 q 184 36 209 41 q 151 30 159 30 q 103 52 123 30 q 83 111 83 74 q 85 134 83 122 m 220 109 q 237 159 233 133 q 238 182 238 171 q 227 236 238 212 q 201 262 214 262 l 201 262 q 161 233 187 262 q 105 137 115 183 q 103 113 103 124 q 116 68 103 86 q 151 50 130 50 q 164 52 157 50 q 220 109 194 59 z "},"t":{"ha":247,"x_min":-146,"x_max":271,"o":"m 85 122 q 18 277 41 140 q 11 414 12 307 q 10 472 10 447 l 10 495 q 13 563 10 526 q 22 663 16 599 q 23 680 24 674 q 21 687 23 685 q 16 692 20 690 q 10 695 12 694 q 5 696 7 696 q -1 696 2 696 q -21 693 -8 695 q -57 686 -35 690 q -106 675 -87 679 q -131 671 -124 671 q -140 670 -137 670 q -144 671 -143 670 q -146 674 -146 672 l -146 675 q -142 682 -145 678 q -135 687 -139 685 q -105 695 -130 689 q -51 708 -80 701 q 0 718 -21 714 q 26 732 18 720 q 37 771 34 744 q 42 803 40 791 q 45 823 43 816 q 47 833 46 830 q 50 838 48 837 q 53 839 51 839 q 56 840 54 840 q 64 821 64 840 q 60 788 64 808 q 56 755 56 768 q 62 736 56 741 q 83 732 67 732 q 117 735 96 732 q 173 741 155 740 q 197 741 191 741 q 222 739 217 741 q 225 733 225 736 l 225 731 q 218 725 224 726 q 202 723 214 724 q 176 721 191 722 q 102 713 136 718 q 60 703 68 708 q 51 694 54 700 q 45 673 47 688 q 40 629 43 658 q 28 429 28 519 q 41 264 28 335 q 104 142 62 142 q 245 415 156 142 q 265 449 258 449 q 267 448 267 449 q 271 439 271 446 q 264 410 271 429 q 205 249 230 307 q 158 159 181 192 q 102 118 130 118 q 85 122 94 118 z "},"u":{"ha":505,"x_min":7,"x_max":532,"o":"m 295 151 q 254 209 269 165 q 231 347 240 253 q 222 378 229 378 q 220 376 221 378 q 211 357 218 375 q 196 313 205 339 q 104 159 151 167 q 90 157 97 157 q 63 164 76 157 q 31 198 43 175 q 11 280 14 232 q 7 359 7 329 q 11 448 7 402 q 17 496 14 487 q 24 505 20 505 q 30 501 26 505 q 34 495 33 498 q 35 489 35 492 q 34 480 35 486 q 32 450 34 470 q 28 360 28 408 l 28 345 q 33 260 28 288 q 46 215 37 235 q 66 186 56 195 q 89 180 76 180 q 113 186 102 180 q 207 444 160 221 q 221 501 215 486 q 235 516 227 516 q 245 509 241 516 q 250 477 248 501 q 252 405 251 453 q 294 179 254 211 q 307 168 302 170 q 324 165 313 165 q 337 166 332 165 q 347 172 342 168 q 363 188 353 177 q 409 255 384 210 q 494 407 469 366 q 528 447 519 447 q 532 442 532 447 q 531 435 532 439 q 507 390 527 423 q 479 341 496 370 q 449 286 463 311 q 423 240 435 262 q 404 208 410 218 q 375 172 391 189 q 348 149 359 155 q 323 144 336 144 l 320 144 q 295 151 305 144 z "},"v":{"ha":490,"x_min":7,"x_max":517,"o":"m 7 390 q 9 470 7 435 q 16 512 11 505 q 20 516 18 516 l 21 516 q 24 514 23 516 q 28 485 27 513 q 29 392 29 458 q 58 184 29 230 q 114 139 87 139 q 155 156 133 139 q 252 334 207 198 q 258 365 258 355 q 257 375 258 371 q 251 382 256 378 q 234 394 245 387 q 156 530 156 445 q 161 575 156 551 q 202 661 176 639 q 245 682 228 682 q 275 669 260 682 q 302 614 293 653 q 308 542 308 591 q 302 458 308 494 q 299 432 300 445 q 298 413 298 418 l 298 410 q 306 395 298 399 q 328 393 312 393 q 345 393 335 393 q 396 403 370 395 q 470 433 423 412 q 510 448 499 448 q 517 442 517 448 q 458 406 517 431 q 390 380 414 387 q 335 372 366 374 q 291 364 302 372 q 271 328 279 356 q 175 146 218 177 q 111 115 133 115 q 54 153 79 115 q 7 390 9 217 m 265 410 q 276 427 272 413 q 285 474 280 441 q 290 542 290 511 q 286 591 290 568 q 273 633 283 614 q 254 658 264 652 q 243 660 249 660 q 218 647 231 660 q 186 592 200 629 q 180 566 182 578 q 178 531 178 553 q 180 496 178 507 q 188 474 182 486 q 212 438 197 455 q 241 414 227 422 q 245 413 243 414 q 254 409 251 410 q 258 408 256 408 l 259 408 q 264 410 261 408 l 265 410 z "},"w":{"ha":500,"x_min":-27,"x_max":406,"o":"m 281 117 q 192 304 220 145 q 185 334 189 321 q 181 349 182 347 q 177 351 179 351 q 172 349 175 351 q 158 329 167 345 q 133 281 149 313 q 74 181 97 209 q 26 153 50 153 q -18 191 -4 153 q -27 256 -27 218 q 11 450 -27 331 q 25 489 20 475 q 34 509 30 503 q 41 514 37 514 q 47 505 47 514 l 47 500 q 33 449 45 487 q -6 271 -3 339 q -7 250 -7 259 q 9 184 -7 201 q 28 174 18 174 q 53 187 39 174 q 116 292 78 213 q 122 304 119 298 q 148 357 138 336 q 164 389 158 378 q 174 406 170 401 q 179 412 177 411 q 184 414 181 414 l 185 414 l 189 414 q 195 412 193 414 q 201 396 199 408 q 205 359 203 384 q 243 194 216 258 q 306 131 271 131 q 367 191 347 131 q 388 320 388 250 q 387 363 388 341 q 321 608 379 478 q 309 636 313 625 q 303 652 304 647 q 302 659 302 656 l 302 661 q 305 665 303 663 q 308 665 307 665 q 344 606 319 665 q 396 445 380 520 q 402 410 400 425 q 405 376 404 395 q 406 323 406 357 q 405 271 406 289 q 402 241 404 253 q 397 218 401 230 q 332 117 375 136 q 307 111 319 111 q 281 117 294 111 z "},"x":{"ha":363,"x_min":-115,"x_max":391,"o":"m -114 74 q -115 79 -115 77 q -114 84 -115 82 q 4 274 -111 92 q 21 307 20 297 q 23 322 23 317 q 18 365 23 338 q 12 416 15 381 q 5 490 8 451 q 1 551 2 530 q 0 581 0 573 q 1 592 0 590 q 6 596 3 596 l 7 596 q 16 591 12 596 q 25 505 20 585 q 30 440 27 471 q 33 399 32 410 q 41 368 36 380 q 51 355 45 355 q 69 374 55 355 q 113 435 83 392 q 175 523 142 477 q 234 600 208 568 q 266 639 259 633 q 277 644 273 644 q 281 637 281 644 q 267 613 281 635 q 231 564 252 592 q 81 353 142 444 q 62 321 67 332 q 57 303 57 311 q 76 255 57 281 q 117 219 94 229 q 144 214 130 214 q 249 269 191 214 q 350 400 297 313 q 385 444 377 444 q 391 439 391 444 q 389 431 391 435 q 365 385 385 418 q 222 219 277 244 q 144 193 168 193 q 59 241 96 193 q 40 264 45 262 q 32 267 35 267 q 20 259 26 267 q -1 228 16 255 q -43 163 -19 200 q -79 105 -66 126 q -99 77 -92 85 q -109 68 -106 68 l -109 68 q -114 74 -113 68 z "},"y":{"ha":549,"x_min":7,"x_max":576,"o":"m 136 -349 q 77 -210 77 -314 q 82 -145 77 -180 q 117 -26 92 -79 q 174 64 140 22 q 267 155 209 106 q 300 183 286 171 q 316 200 313 196 q 321 224 321 207 q 313 288 321 248 q 294 365 304 326 q 276 418 283 404 q 262 432 269 432 q 254 426 258 432 q 248 409 252 422 q 239 377 243 395 q 110 163 183 194 q 93 161 102 161 q 83 161 88 161 q 60 170 69 163 q 7 336 7 206 q 16 460 7 390 q 24 508 21 499 q 32 517 28 517 q 38 513 35 517 q 40 507 40 511 q 41 501 41 504 q 40 488 41 496 q 36 452 39 475 q 29 336 29 393 q 36 250 29 278 q 90 182 55 182 q 122 194 105 182 q 233 436 186 245 q 260 504 248 504 l 261 504 q 298 420 273 500 q 336 279 323 341 q 348 238 342 238 q 355 238 355 238 q 409 277 368 238 q 537 412 468 330 q 572 444 564 444 q 576 436 576 444 q 548 394 576 429 q 477 316 519 360 q 391 232 435 272 l 352 196 l 353 159 q 355 77 355 119 q 355 33 355 55 q 349 -67 353 -33 q 286 -264 330 -188 q 249 -311 271 -289 q 207 -343 227 -333 q 177 -353 189 -353 q 163 -354 165 -354 q 136 -349 147 -354 m 201 -325 q 281 -229 245 -300 q 307 -162 297 -195 q 326 -82 317 -128 q 332 -30 331 -55 q 334 58 334 -4 q 333 117 334 96 q 331 149 333 138 q 326 161 330 159 q 316 163 322 163 q 285 144 309 163 q 234 98 261 125 q 186 47 206 71 q 98 -176 109 -48 q 97 -208 97 -193 q 126 -315 97 -280 q 165 -335 142 -335 q 201 -325 181 -335 z "},"z":{"ha":491,"x_min":-41,"x_max":518,"o":"m 35 -238 q -20 -196 0 -229 q -41 -116 -41 -163 l -41 -114 q 6 24 -41 -43 q 160 174 54 93 q 175 186 170 182 q 181 195 180 191 q 182 205 182 199 q 159 253 182 226 q 110 288 136 279 q 87 301 87 292 l 87 302 q 114 338 88 312 q 178 456 178 400 q 160 504 178 490 q 125 517 142 517 q 100 511 113 517 q 56 478 79 503 q 26 457 34 457 q 22 463 22 457 q 45 497 22 475 q 92 530 68 519 q 126 536 110 536 q 167 524 149 536 q 200 454 198 500 q 143 338 200 404 q 133 325 137 331 q 129 315 129 318 q 135 306 129 313 q 151 290 141 298 q 170 271 159 283 q 188 248 180 258 q 208 223 202 225 q 217 221 214 221 q 239 230 227 221 q 357 316 283 258 q 479 416 430 373 q 513 441 505 441 q 518 435 518 441 q 477 389 518 426 q 378 306 436 352 q 266 223 320 260 q 234 199 243 208 q 224 184 224 190 q 224 176 224 178 q 229 146 224 165 q 237 55 237 110 q 229 -33 237 1 q 143 -192 201 -134 q 50 -239 94 -239 q 35 -238 42 -239 m 92 -207 q 208 -33 170 -159 q 214 1 212 -18 q 216 56 216 19 l 216 68 q 196 163 216 156 q 191 164 194 164 q 175 159 184 164 q 126 121 160 150 q -18 -79 1 18 q -22 -117 -22 -98 q -15 -163 -22 -141 q 30 -214 -1 -199 q 50 -218 39 -218 q 92 -207 69 -218 z "},"{":{"ha":690,"x_min":68,"x_max":623,"o":"m 193 -195 q 97 -131 127 -178 q 68 -27 68 -83 q 70 4 68 -12 q 109 135 78 69 q 176 246 137 194 q 283 368 215 298 q 334 421 313 398 q 357 449 355 444 q 359 458 359 454 q 346 473 359 468 q 270 482 327 480 q 225 486 240 484 q 206 493 210 488 q 201 509 201 498 q 204 518 201 513 q 216 533 208 524 q 242 560 225 543 q 272 594 259 578 q 288 614 286 609 q 294 640 294 627 q 290 662 294 650 q 251 728 281 687 q 218 780 229 759 q 204 821 208 800 q 203 844 203 832 q 227 941 203 888 q 322 1074 259 1009 q 431 1156 377 1130 q 460 1169 449 1166 q 486 1173 471 1172 l 496 1173 q 524 1168 515 1173 q 539 1157 535 1162 q 543 1148 543 1152 q 541 1143 543 1145 q 537 1141 540 1141 q 534 1141 536 1141 q 517 1147 530 1142 q 500 1154 505 1154 q 493 1155 496 1155 q 479 1153 487 1155 q 352 1074 420 1139 q 246 932 284 1010 q 223 844 223 884 q 233 795 223 818 q 247 771 237 787 q 267 740 256 755 q 302 685 292 706 q 314 645 313 664 l 315 638 q 306 606 315 621 q 266 556 296 587 q 243 530 252 542 q 233 517 233 519 q 245 505 233 509 q 292 500 257 502 q 351 494 333 498 q 377 481 369 490 q 386 464 386 473 q 385 460 386 462 q 365 425 383 448 q 306 362 346 403 q 251 305 277 332 q 216 264 226 277 q 96 53 102 119 q 89 -26 89 -13 q 171 -166 89 -124 q 249 -181 206 -181 q 390 -149 311 -181 q 497 -95 433 -131 q 591 -36 561 -59 q 618 -21 610 -21 q 623 -27 623 -21 q 497 -118 623 -49 q 307 -195 381 -183 q 248 -201 279 -201 q 193 -195 216 -201 z "},"|":{"ha":166,"x_min":68,"x_max":98,"o":"m 81 -132 q 78 -4 79 -119 q 77 175 77 111 q 78 465 77 305 l 78 518 q 77 669 78 579 q 74 923 76 804 q 71 1061 72 1041 q 68 1090 69 1078 q 68 1105 68 1103 q 75 1110 71 1110 l 77 1110 q 86 1101 83 1108 q 90 1001 88 1091 q 94 786 92 911 q 97 561 96 660 q 98 406 98 462 l 98 355 q 97 195 98 287 q 97 36 97 103 q 96 -79 97 -32 q 94 -132 96 -127 q 91 -136 93 -134 q 88 -138 90 -138 q 84 -136 86 -138 q 81 -132 83 -134 z "},"}":{"ha":639,"x_min":68,"x_max":571,"o":"m 140 -161 q 127 -150 129 -155 q 125 -144 125 -145 q 132 -139 125 -139 q 140 -140 136 -139 q 148 -143 144 -142 q 177 -147 158 -147 q 225 -143 197 -147 q 336 -117 283 -135 q 538 93 484 -62 q 549 147 548 123 q 551 181 551 172 q 546 229 551 208 q 336 419 515 360 q 295 436 305 429 q 285 451 285 442 q 288 460 285 456 q 300 472 290 465 q 330 495 309 479 q 369 542 369 523 q 346 566 369 557 q 316 576 338 570 q 267 589 293 583 q 176 618 200 605 q 151 655 153 632 q 151 661 151 658 q 163 700 151 676 q 221 795 177 729 q 334 1025 332 962 q 334 1038 334 1031 q 239 1120 334 1114 q 220 1121 230 1121 q 159 1116 192 1121 q 89 1097 114 1108 q 79 1092 81 1092 q 76 1092 77 1092 q 71 1094 73 1092 q 68 1100 68 1097 q 82 1115 68 1107 q 142 1132 103 1125 q 223 1139 180 1139 q 300 1127 271 1139 q 344 1086 329 1114 q 352 1065 350 1074 q 354 1037 354 1057 l 354 1035 q 328 935 354 992 q 231 773 300 877 q 185 701 199 726 q 172 662 172 675 q 182 640 172 649 q 198 630 188 634 q 230 620 209 625 q 288 605 251 614 q 369 578 346 591 q 391 543 391 564 q 382 515 391 528 q 350 484 373 502 q 324 453 324 464 q 332 445 324 448 q 349 437 336 443 q 378 425 361 432 q 446 393 418 410 q 498 350 473 376 q 562 247 546 304 q 571 174 571 215 q 562 100 571 134 q 376 -121 517 -54 q 261 -158 317 -149 q 179 -167 205 -167 q 140 -161 154 -167 z "},"":{"ha":175,"x_min":68,"x_max":107,"o":"m 104 857 q 105 821 105 852 q 102 672 105 775 q 90 261 98 500 q 85 52 85 114 q 86 20 85 32 q 88 -7 87 3 q 88 -20 88 -16 q 87 -25 88 -24 q 81 -30 85 -30 q 79 -29 80 -30 q 70 -20 73 -27 q 68 28 68 -9 q 68 83 68 66 q 69 198 68 134 q 73 371 71 284 q 79 530 76 439 q 83 690 81 620 q 87 805 85 758 q 91 857 89 852 q 94 861 92 859 q 98 863 96 863 q 100 861 98 863 q 104 857 102 859 m 104 996 q 107 986 107 991 q 106 980 107 983 q 94 972 102 972 q 83 977 85 972 q 81 983 81 981 q 87 995 81 989 q 95 1002 94 1002 q 97 1002 96 1002 q 104 996 100 1002 z "},"":{"ha":469,"x_min":68,"x_max":401,"o":"m 281 -43 q 272 -10 277 -37 q 261 77 268 17 q 253 134 257 109 q 248 163 250 159 q 243 172 246 169 q 234 176 241 174 q 215 179 228 177 q 106 263 144 190 q 68 435 68 336 q 68 458 68 446 q 118 639 73 553 q 138 673 128 659 q 163 701 148 686 q 187 724 175 713 q 205 740 199 735 l 221 752 l 219 789 q 218 812 218 803 l 218 820 q 220 833 218 830 q 226 836 222 836 q 234 826 231 836 q 239 792 237 817 q 242 770 241 780 q 245 758 244 760 q 254 750 247 755 q 269 741 260 745 q 322 686 304 724 q 334 656 329 673 q 341 629 339 640 q 344 612 344 618 q 343 608 344 610 q 339 604 342 606 q 334 603 337 603 q 319 636 329 604 q 260 720 292 720 q 253 717 256 720 q 248 706 250 715 q 246 677 246 697 q 247 622 246 657 q 250 533 248 587 q 267 231 259 239 q 279 220 271 220 q 305 235 289 220 q 333 262 316 243 q 387 326 349 281 q 396 331 393 331 q 401 321 401 331 q 384 290 401 313 q 342 243 366 268 q 296 202 319 218 q 280 188 287 195 q 273 177 274 181 q 273 167 273 174 q 275 122 273 153 q 288 22 279 77 q 293 -18 291 -1 q 296 -39 296 -35 q 293 -48 296 -47 q 288 -49 290 -49 q 281 -43 284 -49 m 238 206 q 243 213 241 210 q 245 223 245 216 q 243 244 245 231 q 236 368 239 303 q 231 523 233 432 q 228 616 229 581 q 225 671 227 652 q 222 697 224 690 q 218 707 220 705 q 209 711 214 711 q 205 711 207 711 q 182 694 197 708 q 98 532 127 638 q 92 496 94 514 q 91 436 91 477 q 92 375 91 393 q 99 338 94 357 q 185 210 124 240 q 220 199 206 199 q 238 206 231 199 z "},"":{"ha":698,"x_min":68,"x_max":630,"o":"m 108 -73 q 73 -16 73 -53 l 73 -10 q 117 58 76 31 q 153 73 134 68 q 200 77 172 77 q 234 81 226 77 q 243 100 241 85 q 245 123 245 107 q 243 158 245 138 q 241 194 243 177 q 233 238 239 212 q 218 311 228 265 q 189 336 212 335 q 168 334 184 336 q 133 328 151 332 q 95 323 106 324 q 80 321 85 321 q 73 322 75 321 q 68 328 68 323 q 73 335 68 332 q 94 342 78 338 q 138 349 109 345 q 170 355 159 353 q 186 360 181 357 q 195 366 191 362 q 201 380 201 374 q 201 383 201 382 q 198 401 200 387 q 193 435 195 416 q 189 511 189 471 q 189 538 189 524 q 200 633 191 593 q 313 836 233 770 q 380 865 347 863 q 391 866 386 866 q 483 772 458 866 q 491 724 488 747 q 493 689 493 701 q 492 674 493 680 q 487 666 489 667 q 484 665 484 665 q 477 670 479 665 q 475 682 477 672 q 473 705 474 692 q 416 841 463 820 q 389 846 403 846 q 294 789 342 846 q 213 593 235 715 q 209 528 209 566 l 209 516 q 214 431 210 471 q 226 379 219 391 q 232 373 228 376 q 239 369 235 370 l 241 369 q 263 371 247 369 q 311 378 283 373 q 381 388 361 386 q 408 391 400 391 q 418 390 415 391 q 422 385 422 388 q 421 380 422 382 q 420 380 421 380 q 419 377 420 378 q 416 375 418 376 q 408 373 413 374 q 392 370 402 372 q 367 366 382 368 q 330 360 351 363 q 275 351 298 355 q 248 345 252 347 q 240 336 241 342 q 239 326 239 331 q 241 309 239 319 q 250 256 243 290 q 262 193 259 215 q 264 134 264 171 q 265 91 264 109 q 267 71 266 73 q 326 53 276 61 q 429 44 375 45 l 448 44 q 477 45 465 44 q 511 52 493 47 q 559 70 532 58 q 612 96 587 82 q 621 101 618 100 q 623 101 623 101 q 628 99 626 101 q 630 94 630 97 q 592 63 630 83 q 488 27 539 35 q 439 24 468 24 q 408 25 425 24 q 315 35 359 27 q 282 40 290 39 q 272 40 275 40 q 261 39 264 40 q 238 5 253 35 q 184 -62 214 -45 q 135 -79 155 -79 q 108 -73 121 -79 m 163 -52 q 192 -28 178 -44 q 216 5 207 -13 q 227 37 227 24 q 196 56 227 56 l 188 56 q 100 12 123 56 q 93 -17 93 -4 q 105 -46 93 -34 q 134 -58 117 -58 q 163 -52 147 -58 z "},"":{"ha":699,"x_min":68,"x_max":631,"o":"m 500 -85 q 496 -69 498 -82 q 492 -22 494 -56 q 490 74 491 11 q 482 193 486 182 q 474 201 479 199 q 462 203 469 203 q 451 202 457 203 q 407 197 436 201 q 366 192 376 193 q 351 191 355 191 q 338 192 342 191 q 330 198 331 193 l 330 199 q 335 205 330 202 q 359 211 341 208 q 413 218 378 214 q 451 224 438 222 q 469 228 464 226 q 477 235 475 231 l 486 243 l 487 434 q 487 517 487 480 q 487 582 487 554 q 488 631 488 610 q 487 666 488 652 q 487 690 487 680 q 487 705 487 699 q 486 713 486 710 q 485 716 486 715 q 484 718 484 718 q 481 720 482 720 q 477 717 479 720 q 467 697 473 712 q 450 652 461 682 q 269 374 372 429 q 247 365 255 367 q 222 362 238 362 q 198 364 208 362 q 179 372 189 366 q 71 575 96 422 q 68 644 68 603 q 68 682 68 662 q 78 796 71 749 q 104 877 92 876 q 106 878 105 878 q 112 867 112 878 q 106 836 112 856 q 86 659 86 739 q 124 465 86 547 q 222 381 168 381 q 283 409 249 382 q 349 481 318 437 q 460 753 415 583 q 476 814 470 793 q 485 843 481 835 q 493 852 489 851 q 500 854 497 854 q 513 843 509 854 q 513 829 513 840 q 513 800 513 819 q 510 707 512 761 q 507 568 508 652 q 505 414 505 484 l 505 333 q 507 269 505 290 q 516 236 509 240 q 534 232 524 232 q 551 234 541 232 q 568 236 558 235 q 607 238 593 238 q 618 237 614 238 q 631 229 631 236 q 629 224 631 226 q 622 221 628 222 q 604 218 616 220 q 571 216 592 217 q 524 208 536 213 q 508 191 511 203 l 508 145 q 510 49 508 105 q 512 -36 512 -7 q 513 -75 513 -64 q 512 -87 513 -85 q 507 -90 510 -90 q 500 -85 505 -90 z "},"":{"ha":576,"x_min":68,"x_max":509,"o":"m 191 92 q 101 168 135 113 q 68 295 68 223 q 90 419 68 351 q 142 522 113 488 q 185 556 157 536 q 235 585 213 575 q 319 602 267 602 q 488 501 438 602 q 505 453 500 475 q 509 400 509 431 l 509 384 q 502 319 509 348 q 477 252 494 288 q 296 90 412 123 q 249 84 275 84 l 243 84 q 191 92 214 85 m 242 238 q 205 318 205 258 q 224 396 205 357 q 269 450 243 435 q 289 454 279 454 l 292 454 q 309 448 303 454 q 313 439 313 443 q 312 435 313 437 q 300 432 309 432 l 294 432 q 287 433 290 433 q 281 432 284 433 q 269 424 276 430 q 230 360 236 393 q 224 315 224 327 q 241 264 224 283 q 271 250 255 250 q 277 251 274 250 q 330 279 298 255 q 353 296 343 289 q 366 302 363 302 q 372 298 372 302 q 370 291 372 296 q 346 266 363 280 q 310 241 330 252 q 270 231 288 231 q 242 238 254 231 m 283 107 q 431 212 371 130 q 490 392 490 294 q 345 581 486 556 q 320 583 332 583 q 197 537 252 583 q 181 524 189 531 q 166 513 172 517 q 112 424 136 490 q 89 294 89 357 q 165 129 89 183 q 246 102 203 102 q 283 107 264 102 z "},"":{"ha":452,"x_min":68,"x_max":385,"o":"m 113 391 q 158 435 129 406 q 199 474 182 458 q 219 491 216 490 l 220 491 q 224 490 222 491 q 228 487 227 489 q 229 484 229 486 q 226 477 229 481 q 216 466 223 473 q 197 446 210 458 q 167 416 185 434 q 125 374 140 389 q 106 352 111 359 q 100 342 100 345 q 102 336 100 339 q 110 326 103 332 q 129 307 116 319 q 165 273 142 294 q 211 228 192 246 q 231 205 230 209 q 232 201 232 203 q 231 197 232 199 q 225 194 229 194 l 222 195 q 199 213 219 196 q 151 256 179 231 q 123 281 135 271 q 111 292 117 288 q 97 305 104 300 q 68 339 68 328 l 68 340 q 98 377 68 351 q 113 391 105 383 m 265 391 q 310 435 281 406 q 351 474 334 458 q 371 491 368 490 l 372 491 q 376 490 374 491 q 380 487 378 489 q 381 485 381 486 l 381 484 q 378 477 381 481 q 368 466 375 473 q 350 446 361 458 q 319 416 338 434 q 278 374 292 389 q 258 352 264 359 q 253 342 253 345 l 253 340 q 254 336 253 338 q 262 326 256 332 q 281 307 268 319 q 317 273 294 294 q 363 228 344 246 q 384 205 382 209 q 385 201 385 203 q 383 197 385 199 q 377 194 380 194 l 374 195 q 351 213 372 196 q 303 256 331 231 q 276 281 287 271 q 264 292 269 288 q 249 305 256 300 q 220 340 220 328 l 220 340 q 251 378 220 351 q 265 391 258 383 z "},"":{"ha":576,"x_min":68,"x_max":509,"o":"m 243 219 q 237 338 239 230 l 235 420 l 235 433 q 238 454 235 446 q 262 472 242 467 q 278 474 270 474 q 286 473 282 474 q 308 466 299 471 q 337 422 337 449 q 311 364 337 397 q 300 342 300 351 l 300 340 q 321 328 302 333 q 338 321 334 324 q 342 314 342 318 q 340 309 342 311 q 333 308 339 308 q 316 309 328 308 q 285 313 304 311 q 277 314 280 314 q 271 313 273 314 q 262 309 266 313 q 258 302 260 307 q 257 289 257 298 q 258 263 257 280 q 258 245 258 253 q 250 212 258 212 q 246 214 248 212 q 243 219 244 216 m 191 92 q 102 168 136 113 q 68 295 68 223 q 90 419 68 351 q 142 522 113 488 q 185 556 157 536 q 235 585 213 575 q 319 602 267 602 q 488 501 438 602 q 505 453 500 475 q 509 400 509 431 l 509 391 q 502 319 509 351 q 477 252 494 288 q 296 90 412 123 q 249 84 275 84 l 243 84 q 191 92 214 85 m 283 107 q 429 211 371 130 q 490 392 488 292 q 452 521 490 472 q 345 581 414 570 q 320 583 332 583 q 197 537 253 583 q 180 524 189 531 q 166 513 172 517 q 113 425 136 490 q 90 294 90 360 q 165 129 90 183 q 245 102 202 102 q 283 107 264 102 m 283 366 q 302 387 292 372 q 315 412 313 401 q 316 419 316 416 q 309 438 316 429 q 293 451 300 450 q 283 452 285 452 q 264 444 273 452 q 258 431 260 438 q 257 404 257 423 q 261 367 257 372 q 270 361 265 361 q 283 366 275 361 z "},"":{"ha":284,"x_min":68,"x_max":216,"o":"m 111 757 q 72 814 83 769 q 68 852 68 833 q 70 881 68 867 q 90 931 75 916 q 102 938 96 937 q 125 939 109 939 q 163 932 147 939 q 193 908 178 925 q 216 848 216 881 q 216 839 216 844 q 182 772 213 800 q 132 750 154 750 q 123 752 129 750 q 111 757 117 754 m 151 775 q 179 798 167 781 q 196 836 192 815 q 197 846 197 841 q 178 895 197 872 q 130 919 157 919 l 126 919 q 88 852 88 918 q 103 791 88 809 q 135 772 118 772 q 151 775 142 772 z "},"":{"ha":455,"x_min":68,"x_max":387,"o":"m 186 295 q 142 251 170 279 q 101 211 118 227 q 81 195 84 195 l 79 195 q 76 195 78 195 q 71 199 73 197 l 71 202 q 74 208 71 204 q 83 220 77 212 q 102 239 90 227 q 133 270 115 251 q 174 311 160 296 q 194 333 189 326 q 199 343 199 340 q 198 349 199 346 q 190 359 197 353 q 171 379 184 366 q 136 413 158 391 q 89 458 108 439 q 68 480 70 477 q 68 484 68 482 q 69 488 68 486 q 75 491 71 491 l 77 491 q 100 472 80 490 q 149 429 121 454 q 188 393 174 406 q 202 380 196 386 q 232 346 232 357 q 201 309 232 334 q 186 295 195 302 m 342 295 q 296 251 326 279 q 256 211 273 227 q 236 195 239 195 l 234 195 q 231 195 233 195 q 227 199 229 197 q 226 201 226 199 l 226 202 q 229 208 226 204 q 239 220 232 212 q 257 239 245 227 q 288 270 269 251 q 329 311 315 296 q 349 333 343 326 q 354 343 354 340 l 354 345 q 353 349 354 347 q 345 359 351 353 q 326 379 339 366 q 290 413 313 391 q 244 458 263 439 q 223 480 225 477 q 222 484 222 482 q 224 488 222 486 q 231 491 226 491 l 233 491 q 255 472 235 490 q 304 429 275 454 q 343 393 329 406 q 357 380 351 386 q 387 346 387 357 q 356 308 387 334 q 342 295 349 302 z "},"":{"ha":602,"x_min":68,"x_max":534,"o":"m 314 861 q 325 812 325 841 q 326 780 326 783 q 316 678 326 728 q 278 552 304 617 q 198 385 252 487 q 110 202 133 263 q 87 96 87 142 l 87 94 q 89 62 87 73 q 96 41 91 52 q 199 -21 127 -21 q 220 -20 209 -21 q 281 -5 254 -16 q 342 27 309 5 q 505 254 466 112 q 514 326 514 292 q 513 347 514 336 q 491 416 509 390 q 483 435 483 429 q 485 440 483 439 q 488 441 486 441 q 507 427 494 441 q 530 370 527 401 q 534 322 534 338 q 526 252 534 288 q 431 77 500 153 q 268 -31 361 1 q 240 -38 254 -36 q 201 -39 227 -39 q 171 -39 181 -39 q 154 -36 161 -38 q 138 -30 146 -34 q 79 29 98 -11 q 72 52 74 41 q 68 83 69 64 q 68 99 68 91 q 87 199 68 144 q 178 391 111 262 q 218 469 199 432 q 243 522 236 506 q 277 610 262 563 q 298 692 292 656 q 304 751 304 728 q 305 780 305 775 q 301 832 305 814 q 296 857 296 848 q 302 869 296 867 q 308 867 304 869 q 314 861 311 865 m 311 1005 q 315 996 315 1000 q 313 989 315 993 q 301 981 310 981 q 291 986 292 981 q 289 993 289 991 q 294 1004 289 999 q 295 1005 295 1004 q 304 1012 301 1012 q 311 1005 306 1012 z "},"":{"ha":493,"x_min":68,"x_max":425,"o":"m 418 157 q 389 184 417 157 q 321 251 361 212 q 294 279 307 266 q 240 331 256 317 q 215 344 224 344 q 210 343 212 344 q 185 320 200 339 q 174 307 180 314 q 144 274 155 286 q 127 256 133 262 q 119 250 121 251 q 116 250 117 250 q 113 250 115 250 q 110 256 110 252 q 114 267 110 260 q 153 314 122 281 q 193 368 192 359 q 194 371 194 369 q 191 381 194 376 q 171 406 186 389 q 124 454 155 422 q 85 494 101 477 q 68 515 69 511 q 69 519 68 517 q 73 524 70 522 q 76 525 74 525 q 82 522 78 524 q 93 512 86 519 q 113 493 100 505 q 143 463 125 481 q 185 421 170 435 q 207 401 200 407 q 217 396 214 396 l 218 396 q 223 397 220 396 q 233 405 227 399 q 253 424 240 411 q 287 460 265 437 q 332 507 313 488 q 353 527 351 526 q 357 528 355 528 q 362 526 360 528 q 365 520 365 524 l 365 518 q 346 495 363 515 q 302 446 328 475 q 269 410 281 423 q 251 389 256 396 q 244 378 245 381 q 243 372 243 375 l 243 370 q 247 360 243 367 q 262 341 251 354 q 295 306 274 329 q 343 256 317 282 q 386 212 369 229 q 425 167 425 173 l 425 165 q 418 157 425 157 z "},"":{"ha":165,"x_min":68,"x_max":98,"o":"m 68 262 q 73 274 68 269 q 83 278 77 278 q 94 274 91 278 q 98 264 98 269 l 98 262 q 90 247 94 249 q 82 245 85 245 q 74 248 78 245 q 68 262 68 253 m 68 425 q 73 436 68 431 q 83 440 77 440 q 94 436 91 440 q 98 426 98 431 l 98 424 q 90 409 94 411 q 82 408 85 408 q 74 410 78 408 q 68 425 68 415 z "},"":{"ha":315,"x_min":68,"x_max":247,"o":"m 68 800 l 68 801 q 68 806 68 803 q 74 817 71 811 q 100 844 79 823 q 148 893 121 866 q 198 942 176 920 q 228 968 221 963 q 239 972 234 972 l 241 972 q 247 965 247 970 q 221 937 247 962 q 163 878 196 911 q 104 821 131 846 q 75 796 77 796 q 71 797 73 796 q 68 800 68 798 z "},"":{"ha":315,"x_min":68,"x_max":248,"o":"m 68 800 q 68 802 68 800 q 69 806 68 804 q 75 817 71 811 q 100 844 79 823 q 149 893 121 866 q 199 942 177 920 q 229 968 222 963 q 240 972 235 972 l 241 972 q 248 965 248 970 q 222 937 248 962 q 164 878 197 911 q 105 821 132 846 q 76 796 78 796 q 72 797 74 796 q 68 800 69 798 z "},"":{"ha":315,"x_min":68,"x_max":247,"o":"m 68 4 l 68 5 q 68 11 68 7 q 74 21 71 16 q 100 49 79 27 q 148 98 121 71 q 198 146 176 125 q 228 172 221 168 q 239 176 235 176 l 241 176 q 247 170 247 175 q 221 141 247 167 q 163 82 196 115 q 104 25 131 50 q 75 0 77 0 q 71 1 73 0 q 68 4 68 3 z "},"":{"ha":463,"x_min":68,"x_max":395,"o":"m 216 751 l 216 753 q 216 758 216 754 q 222 768 218 762 q 248 796 227 774 q 297 845 269 818 q 347 893 324 871 q 376 920 370 914 q 386 923 382 923 l 389 923 q 395 916 395 922 q 369 888 395 914 q 311 830 344 862 q 252 772 279 798 q 223 747 225 747 q 219 748 221 747 q 216 751 216 749 m 68 800 l 68 801 q 69 806 68 803 q 75 817 71 811 q 100 844 79 823 q 149 893 121 866 q 199 942 176 920 q 229 968 222 963 q 239 972 235 972 l 241 972 q 247 965 247 970 q 222 937 247 962 q 164 878 197 911 q 104 821 131 846 q 75 796 78 796 q 71 797 73 796 q 68 800 69 798 z "},"":{"ha":463,"x_min":68,"x_max":395,"o":"m 216 751 q 215 753 215 752 q 216 758 215 755 q 222 768 218 762 q 248 796 227 774 q 296 845 269 818 q 346 893 323 871 q 376 920 369 914 q 386 923 382 923 l 389 923 q 395 916 395 922 q 369 888 395 914 q 311 830 344 862 q 252 772 278 798 q 223 747 225 747 q 218 748 220 747 q 216 751 216 749 m 68 800 l 68 801 q 68 806 68 803 q 75 817 71 811 q 100 844 79 823 q 149 893 121 866 q 199 942 176 920 q 229 968 222 963 q 239 972 235 972 l 241 972 q 247 965 247 970 q 222 937 247 962 q 164 878 197 911 q 104 821 131 846 q 75 796 78 796 q 71 797 73 796 q 68 800 69 798 z "},"":{"ha":463,"x_min":68,"x_max":395,"o":"m 216 4 l 216 5 q 217 11 216 7 q 222 21 219 16 q 248 49 227 27 q 297 98 269 71 q 347 146 324 125 q 376 172 370 168 q 388 176 383 176 l 389 176 q 395 170 395 175 q 370 141 395 167 q 312 82 345 115 q 252 25 279 50 q 223 0 226 0 q 219 1 221 0 q 216 4 217 3 m 68 53 q 68 55 68 54 q 69 60 68 56 q 75 70 71 64 q 101 97 79 75 q 150 146 122 119 q 200 195 177 173 q 229 221 222 216 q 239 224 235 224 l 241 224 q 248 218 248 224 q 222 190 248 216 q 164 131 197 163 q 104 74 131 99 q 76 49 78 49 q 72 50 74 49 q 68 53 69 51 z "},"":{"ha":300,"x_min":68,"x_max":232,"o":"m 113 391 q 158 435 129 406 q 198 474 181 458 q 218 491 216 490 l 220 491 q 223 490 222 491 q 228 487 226 489 q 229 485 229 486 l 229 484 q 225 477 229 481 q 216 466 222 473 q 197 446 209 458 q 167 416 185 434 q 125 374 140 389 q 106 352 111 359 q 100 342 100 345 l 100 340 q 101 336 100 338 q 109 326 103 332 q 129 307 115 319 q 164 273 142 294 q 210 228 191 246 q 231 205 229 209 q 232 201 232 203 q 231 197 232 199 q 224 194 228 194 l 222 195 q 199 213 219 196 q 151 256 179 231 q 123 281 135 271 q 111 292 117 288 q 97 305 103 300 q 68 340 68 328 l 68 340 q 98 378 68 351 q 113 391 105 383 z "},"":{"ha":300,"x_min":68,"x_max":233,"o":"m 187 295 q 142 251 171 279 q 101 211 119 227 q 81 195 84 195 l 79 195 q 77 195 78 195 q 72 199 74 197 q 71 201 71 199 l 71 202 q 74 208 71 204 q 84 220 77 212 q 103 239 91 227 q 134 270 115 251 q 175 311 160 296 q 194 333 189 326 q 199 343 199 340 l 199 345 q 199 349 199 347 q 191 359 197 353 q 172 379 184 366 q 136 413 159 391 q 90 458 109 439 q 68 480 71 477 q 68 484 68 482 q 69 488 68 486 q 76 491 72 491 l 78 491 q 101 472 81 490 q 149 429 121 454 q 189 393 174 406 q 203 380 197 386 q 233 346 233 357 q 201 309 233 334 q 187 295 195 302 z "},"":{"ha":745,"x_min":68,"x_max":677,"o":"m 406 -51 q 293 41 336 -31 q 240 239 251 116 q 235 274 239 265 q 224 286 232 283 l 223 286 q 199 283 218 286 q 146 275 177 280 q 101 266 117 269 q 79 264 85 264 q 71 266 73 264 q 68 270 68 269 q 68 273 68 272 q 68 275 68 274 q 92 283 71 278 q 147 294 113 288 q 195 304 178 300 q 220 311 212 308 q 231 317 228 313 q 238 331 235 321 q 244 367 241 341 q 248 402 246 385 q 250 425 250 418 l 250 428 q 246 441 250 437 q 231 444 243 444 l 224 444 q 172 437 208 443 q 132 431 144 433 q 113 430 119 430 l 110 430 q 102 433 104 431 q 99 438 99 435 q 100 441 99 439 q 120 448 104 445 q 170 457 137 452 q 224 466 205 463 q 250 474 243 470 q 260 482 258 477 q 267 503 262 486 q 279 543 273 520 q 414 800 331 726 q 504 843 462 843 q 513 842 509 843 q 589 780 559 837 q 607 729 603 753 q 610 677 610 705 q 610 646 610 663 q 608 604 609 618 q 604 586 606 590 q 600 582 602 582 l 597 582 q 594 584 595 582 q 593 592 593 587 q 592 609 592 598 q 593 638 592 620 l 593 657 q 574 766 593 730 q 502 822 549 822 q 426 783 467 822 q 351 679 385 743 q 325 615 339 653 q 299 542 310 576 q 288 496 288 507 q 312 479 288 479 q 322 479 317 479 q 404 488 373 485 q 452 491 435 491 q 474 489 469 491 q 480 482 480 487 q 477 476 480 478 q 463 472 473 473 q 429 470 452 471 q 372 465 402 468 q 319 458 342 462 q 292 453 296 455 q 285 448 288 452 q 279 441 282 445 q 272 419 276 435 q 266 383 269 403 q 264 348 264 363 q 267 326 264 332 q 285 321 271 321 l 292 321 q 357 329 311 322 q 413 337 399 336 q 432 338 427 338 q 441 336 439 338 q 448 329 448 332 q 444 324 448 327 q 417 319 441 323 q 359 309 393 315 q 296 299 316 303 q 271 291 275 294 q 265 285 267 288 q 263 272 263 281 q 262 242 262 262 q 270 165 263 200 q 438 -35 311 -24 q 448 -35 444 -35 q 646 125 555 -35 q 671 155 663 155 q 676 151 674 155 q 677 147 677 149 q 640 78 677 132 q 531 -33 585 -3 q 444 -56 486 -56 q 406 -51 425 -56 z "},"":{"ha":507,"x_min":68,"x_max":439,"o":"m 131 328 q 101 327 110 327 q 87 327 92 327 l 79 327 q 70 329 73 328 q 68 332 68 330 l 68 334 q 81 344 68 340 q 140 350 96 347 q 238 355 199 353 q 339 358 278 356 q 404 359 378 359 q 433 358 429 359 q 439 351 439 355 q 435 344 439 347 q 390 340 431 342 q 252 334 321 336 q 131 328 191 332 z "},"":{"ha":470,"x_min":7,"x_max":389,"o":"m 337 -38 q 335 22 336 -34 q 335 161 335 79 q 336 239 336 205 q 335 296 336 273 l 335 308 q 329 364 335 361 l 328 364 q 295 298 320 364 q 155 79 222 105 q 121 71 137 71 q 64 100 90 71 q 7 313 12 154 q 7 347 7 330 q 47 663 7 475 q 59 719 54 698 q 66 751 63 740 q 71 766 68 762 q 75 772 73 770 q 79 774 77 774 l 80 774 q 85 770 82 774 q 85 765 85 770 l 85 760 q 81 729 85 751 q 68 669 77 708 q 36 479 43 549 q 28 347 28 410 q 28 316 28 332 q 95 100 32 138 q 107 94 102 95 q 118 92 113 92 q 125 93 121 92 q 213 169 169 95 q 311 407 256 242 q 317 423 315 416 q 339 491 330 460 q 351 564 347 523 l 357 631 q 365 720 361 682 q 368 764 368 758 q 369 776 368 770 q 373 785 371 782 q 377 789 376 789 l 378 789 q 384 787 380 789 q 387 782 386 785 q 389 771 389 779 q 388 748 389 764 q 384 708 387 733 q 378 645 382 683 q 361 414 366 519 q 355 163 356 309 q 354 70 354 107 q 352 9 353 32 q 350 -24 351 -13 q 347 -39 349 -36 q 342 -43 345 -43 q 340 -41 342 -43 q 337 -38 338 -40 z "},"":{"ha":492,"x_min":-136,"x_max":661,"o":"m 355 -73 q 351 -4 353 -65 q 348 142 349 56 q 347 309 347 227 q 342 460 347 446 q 339 463 341 463 q 330 452 335 463 q 306 389 321 436 q 159 97 222 138 q 133 86 144 87 q 117 85 121 85 q 96 90 105 85 q 71 111 84 96 q 50 142 58 126 q 18 264 30 190 q 11 395 11 315 q 12 437 11 415 q 26 627 14 545 l 26 631 q 26 638 26 635 q 21 648 25 644 l 14 656 l -21 650 q -56 643 -36 647 q -92 634 -76 638 q -117 628 -106 630 q -130 626 -127 626 l -132 626 q -135 629 -134 627 q -136 634 -136 631 q -129 643 -136 640 q -103 652 -123 647 q -45 665 -83 657 q 28 686 23 680 q 42 737 35 692 q 50 782 47 766 q 56 802 53 798 q 62 807 58 807 l 62 807 q 69 798 68 806 q 69 789 69 791 q 64 745 69 775 q 60 710 60 722 q 62 700 60 703 q 83 690 65 690 q 106 692 90 690 q 139 696 122 694 q 190 702 157 698 q 258 708 224 705 q 316 714 292 711 q 345 717 341 716 q 359 733 355 719 q 366 778 364 747 q 369 809 367 799 q 372 822 370 820 q 376 825 374 825 q 380 824 378 825 q 383 819 382 823 q 385 805 385 815 q 385 776 385 795 q 386 747 385 757 q 387 732 386 736 q 391 726 389 727 q 419 722 395 722 q 504 726 444 722 q 562 729 536 728 q 602 730 587 730 q 629 729 616 730 q 658 726 654 728 q 661 723 660 725 q 661 720 661 722 q 661 718 661 719 q 654 714 660 715 q 634 712 648 713 q 593 710 620 711 q 452 702 507 707 q 391 694 397 698 q 386 689 388 692 q 381 683 383 686 q 372 533 375 665 q 368 236 368 400 l 368 180 q 369 92 368 130 q 369 26 369 54 q 369 -20 369 -1 q 368 -50 368 -39 q 367 -67 368 -61 q 366 -76 366 -73 q 363 -78 365 -78 q 359 -77 361 -78 q 355 -73 357 -75 m 149 115 q 227 237 184 140 q 334 543 269 334 q 350 602 346 582 q 356 644 355 622 l 356 653 q 357 669 357 662 q 355 684 357 678 q 333 693 351 692 q 272 689 315 693 q 255 688 264 688 q 123 673 175 680 q 63 662 72 667 q 54 651 58 659 q 48 627 51 644 q 41 577 45 610 q 33 461 34 514 q 31 385 31 408 q 34 306 31 338 q 90 121 48 166 q 104 109 98 111 q 120 106 109 106 q 149 115 137 106 z "}}}
